<?xml version="1.0" encoding="UTF-8"?>
<!DOCTYPE svg PUBLIC "-//W3C//DTD SVG 1.1//EN" "http://www.w3.org/Graphics/SVG/1.1/DTD/svg11.dtd">
<!-- Creator: CorelDRAW 2017 -->
<svg xmlns="http://www.w3.org/2000/svg" xml:space="preserve" width="63.5mm" height="63.5mm" version="1.1" style="shape-rendering:geometricPrecision; text-rendering:geometricPrecision; image-rendering:optimizeQuality; fill-rule:evenodd; clip-rule:evenodd"
viewBox="0 0 6350 6350"
 xmlns:xlink="http://www.w3.org/1999/xlink">
 <defs>
  <style type="text/css">
   <![CDATA[
    .fil0 {fill:#1A1A1A}
    .fil2 {fill:#D90B24}
    .fil1 {fill:#FDFDFD}
   ]]>
  </style>
 </defs>
 <g id="Capa_x0020_1">
  <metadata id="CorelCorpID_0Corel-Layer"/>
  <path class="fil0" d="M2618.82 5670.61c-56.5,90.36 -5.96,58.57 -95.54,69.54 -89.39,160.86 -238.61,129.07 -283.64,350.01 145.38,11.05 374.76,28.91 492.36,-26.26l5.62 -224.67c-43.4,-129.22 -86.64,-167.21 -2.84,-281.22 -12.34,-172.03 58.33,-372.32 131.14,-528.45l819.41 -96.31c31.42,176.28 199.4,617.96 148.58,771.08l-59.12 162.86 -28.91 139.37c95.93,41.48 156.59,32.73 272.12,24.36 131.76,-9.54 169.89,-0.24 210.41,-100.87 -87.92,-24.79 -76.62,-17.22 -140.45,-86.88l-134.82 -169.14c-64.45,-90.03 -187.88,-613.29 -205.84,-752.44l514.22 -58.67c106.89,-440.49 29.92,-1151.38 62.99,-1468.7l697.17 -41.31c47.61,-158.12 -21.71,-113.73 116.44,-214.56 291.51,-212.79 466.26,-633.97 282.13,-949.82 -69.01,-118.41 -107.69,-110.66 -157.99,-178.27 -59.56,-80.08 -25.8,-150.07 -80.58,-257.16 -61.32,-119.88 -89.77,-69.26 -210.21,-129.3l-57.97 -1375.78 -3380.54 138.44 39.01 1152.77c-150.48,33.93 -189.68,56.04 -234.96,185.93 -73.3,210.26 -53.92,90.62 -226.12,222.58 -389.36,298.37 -304.96,918.36 46.32,1216.66 74.28,63.09 149.84,116.14 256.22,166.05 105.66,49.58 122.1,33.8 228.38,106.63 125.43,85.95 221.1,45.84 516.34,35.3 -41.92,396.63 -161.17,1024.79 -48.46,1411.24 211.37,86.52 439.27,126.85 684.48,132.13l-175.35 654.86zm2379.33 -3400.45l35.69 867.13c331.52,-160.29 573.98,-723.07 222.38,-1057.12 -75.95,96.54 13.57,72.48 -84.16,135.61 -56.1,36.23 -108.29,21.44 -173.91,54.38zm-3353.94 1074.88l-45.98 -1247.04c-311.83,-29.08 -164.64,-36.12 -306.02,-179.2 -744.3,380.92 -301.48,1290.84 352,1426.24zm940.82 49.36c103.22,-80.44 88.92,-38.37 197.6,-83.42 80.61,-33.43 100.71,-52.1 115.49,-144.3 -132.94,-78.6 -198.03,-4.38 -335.2,-53.46l-1.4 -101.62c117.5,0.02 521.98,-57.63 466.54,240.41 -21,112.86 -26.26,66.24 -47.7,91.45l78.52 12.75 124.37 12.78 24.14 -79.61c134.22,-5.67 179.56,17.13 273.09,-36.16l-3.78 -83.96c-122.4,-78.84 -238.06,-4.91 -356.15,-56.04l-7.06 -84.16c108.55,-40.23 599.8,-96.7 525.09,220.96 -27.1,115.28 0.44,37.42 -41.34,60.04l130.91 18.26 0.03 -317.72c187.2,5.53 370.96,-21.37 501.61,35.51l47.67 234.58 93.27 18.93c-13,-146.95 -27.34,-255.97 123.13,-288.65 110.2,-23.94 291.01,-18.6 387.88,21.56l-7.25 97.25c-128.05,18.05 -247.18,-17.29 -354.6,36.69l-4.3 146.93 449.66 -18.04c34.18,-158.29 -76.36,-2710.26 -115.18,-2980.76l-3262.87 128.91 125.58 2984.01 872.25 -33.12zm1292.42 -54.57l140.79 -4.54c66.13,-2.1 135.86,-3.17 201.58,-5.92 23.97,-0.99 55.23,-1.15 78.28,-4.8 98.43,-15.58 29.87,9.42 72.63,-24.95l-93.27 -18.93 -47.67 -234.58c-130.65,-56.88 -314.41,-29.98 -501.61,-35.51l-0.03 317.72 149.3 11.51zm-1292.42 54.57c125.07,-6.97 402.41,2.33 473.85,-38.19l-78.52 -12.75c21.44,-25.21 26.7,21.41 47.7,-91.45 55.44,-298.04 -349.04,-240.39 -466.54,-240.41l1.4 101.62c137.17,49.08 202.26,-25.14 335.2,53.46 -14.78,92.2 -34.88,110.87 -115.49,144.3 -108.68,45.05 -94.38,2.98 -197.6,83.42zm598.22 -25.41l491.57 -21.18c62.05,-12.6 28.08,-4.25 53.33,-19.49l-130.91 -18.26c41.78,-22.62 14.24,55.24 41.34,-60.04 74.71,-317.66 -416.54,-261.19 -525.09,-220.96l7.06 84.16c118.09,51.13 233.75,-22.8 356.15,56.04l3.78 83.96c-93.53,53.29 -138.87,30.49 -273.09,36.16l-24.14 79.61zm1187.48 -69.37l144.86 13.78 4.3 -146.93c107.42,-53.98 226.55,-18.64 354.6,-36.69l7.25 -97.25c-96.87,-40.16 -277.68,-45.5 -387.88,-21.56 -150.47,32.68 -136.13,141.7 -123.13,288.65z"/>
  <path class="fil1" d="M2223 3506.49c-56.8,131.38 -192.89,1227.79 -37.33,1323.97 444.71,274.96 1536.42,9.93 2011.15,-23.98 71.37,-162.98 82.46,-863.7 90.25,-1083.22l-128.47 11.25c-107.33,-140.63 -54.5,-327.82 -288.18,-256.27l-20.93 248.76c-182.53,20.39 -76.55,42.74 -145.58,-107.92l-35.11 -57 -124.86 -90.66 -103.36 120.08c249.09,235.06 38.62,675.5 -181.24,860.7 -59.86,-42.46 -172.62,-208.52 -204.48,-292.3 -66.97,-176.08 8.46,-305.81 77.15,-428.45l-52.59 -71.3c-86.97,-123.1 -144.55,-220.22 -320.46,-214.11 -60,62 -68.97,75.27 -69.51,144.9 103.61,37.38 92.89,15.13 173.11,14.53 161.79,-1.23 144.66,40.93 158.86,69.78 -40.14,74.03 -9.37,44.29 -97.67,63.61l-381.41 -19.01c-13.79,-159.06 25.2,-172.34 -41.75,-227.01 -69.69,54.69 -15.8,-23.78 -35.41,76.13 -7.26,36.97 -0.06,57.02 -3.4,76.72 -16.66,98.46 40.55,77.14 -101.7,92.9 -47.07,-86.77 -22.5,-116.05 -31.5,-232.05l-105.58 -0.05zm1445.8 55.59l35.11 57c69.03,150.66 -36.95,128.31 145.58,107.92l20.93 -248.76c233.68,-71.55 180.85,115.64 288.18,256.27l128.47 -11.25 -7.83 -346.8 -459.43 29.21c-10.46,11.95 -29.32,62.84 -42.55,82.6 -78.92,117.93 8.52,49.4 -108.46,73.81zm-909.84 -116.04c-96.6,4.46 -191.01,6.91 -287.29,10.05 -15.41,0.5 -133.21,5.74 -140.2,6.91 -119.87,20.01 -45.48,-14.01 -108.47,43.49l105.58 0.05c9,116 -15.57,145.28 31.5,232.05 142.25,-15.76 85.04,5.56 101.7,-92.9 3.34,-19.7 -3.86,-39.75 3.4,-76.72 19.61,-99.91 -34.28,-21.44 35.41,-76.13 66.95,54.67 27.96,67.95 41.75,227.01l381.41 19.01c88.3,-19.32 57.53,10.42 97.67,-63.61 -14.2,-28.85 2.93,-71.01 -158.86,-69.78 -80.22,0.6 -69.5,22.85 -173.11,-14.53 0.54,-69.63 9.51,-82.9 69.51,-144.9z"/>
  <path class="fil2" d="M3259.34 4350.21c88.18,-66.77 167.35,-187.78 220.05,-316.48 57.58,-140.61 54.9,-372.58 -131.48,-361.76 -290.63,16.88 -344.54,510.22 -88.57,678.24z"/>
  <path class="fil1" d="M1592.57 2033.37l-13.44 -425.91c-137.65,12.45 -194.2,58.4 -204.81,213.34 -13.14,191.94 44.93,204.57 218.25,212.57z"/>
  <path class="fil1" d="M4994.49 2169.2l141.3 10.09c70.49,-215.22 71.41,-445.06 -159.52,-471.54l18.22 461.45z"/>
  <path class="fil2" d="M3091.8 3612.05c215.35,50.96 334.87,-54.9 381.19,-180.26 -129.25,-28.73 -264.59,-9.83 -395.74,6.99l14.55 173.27z"/>
  <path class="fil1" d="M2336.99 6035.35l331.74 -6.88 1.17 -243.56c-136.94,8.12 -285.13,145.99 -332.91,250.44z"/>
  <path class="fil1" d="M3822.16 5973.15l268.85 -8.69 -185.33 -236.16c-68.33,67.63 -77.57,144.74 -83.52,244.85z"/>
 </g>
</svg>
