<?xml version="1.0" encoding="UTF-8"?>
<!DOCTYPE svg PUBLIC "-//W3C//DTD SVG 1.1//EN" "http://www.w3.org/Graphics/SVG/1.1/DTD/svg11.dtd">
<!-- Creator: CorelDRAW 2017 -->
<svg xmlns="http://www.w3.org/2000/svg" xml:space="preserve" width="63.5mm" height="63.5mm" version="1.1" style="shape-rendering:geometricPrecision; text-rendering:geometricPrecision; image-rendering:optimizeQuality; fill-rule:evenodd; clip-rule:evenodd"
viewBox="0 0 6350 6350"
 xmlns:xlink="http://www.w3.org/1999/xlink">
 <defs>
  <style type="text/css">
   <![CDATA[
    .str3 {stroke:#32349C;stroke-width:136.48;stroke-linecap:round;stroke-linejoin:round;stroke-miterlimit:1145.92}
    .str1 {stroke:#32349C;stroke-width:136.49;stroke-linecap:round;stroke-linejoin:round;stroke-miterlimit:1145.92}
    .str0 {stroke:#32349C;stroke-width:136.49;stroke-linecap:round;stroke-linejoin:round;stroke-miterlimit:1145.92}
    .str2 {stroke:#32349C;stroke-width:109.19;stroke-linecap:round;stroke-linejoin:round;stroke-miterlimit:1145.92}
    .fil3 {fill:none;fill-rule:nonzero}
    .fil2 {fill:#42007E}
    .fil1 {fill:#D90B24}
    .fil0 {fill:#FDFDFD}
    .fil4 {fill:#5AFFA4;fill-rule:nonzero}
    .fil5 {fill:#5AFFA4;fill-rule:nonzero}
   ]]>
  </style>
 </defs>
 <g id="Capa_x0020_1">
  <metadata id="CorelCorpID_0Corel-Layer"/>
  <path class="fil0" d="M2223 3506.49c-56.8,131.38 -192.89,1227.79 -37.33,1323.97 444.71,274.96 1536.42,9.93 2011.15,-23.98 71.37,-162.98 82.46,-863.7 90.25,-1083.22l-128.47 11.25c-107.33,-140.63 -54.5,-327.82 -288.18,-256.27l-20.93 248.76c-182.53,20.39 -76.55,42.74 -145.58,-107.92l-35.11 -57 -124.86 -90.66 -103.36 120.08c249.09,235.06 38.62,675.5 -181.24,860.7 -59.86,-42.46 -172.62,-208.52 -204.48,-292.3 -66.97,-176.08 8.46,-305.81 77.15,-428.45l-52.59 -71.3c-86.97,-123.1 -144.55,-220.22 -320.46,-214.11 -60,62 -68.97,75.27 -69.51,144.9 103.61,37.38 92.89,15.13 173.11,14.53 161.79,-1.23 144.66,40.93 158.86,69.78 -40.14,74.03 -9.37,44.29 -97.67,63.61l-381.41 -19.01c-13.79,-159.06 25.2,-172.34 -41.75,-227.01 -69.69,54.69 -15.8,-23.78 -35.41,76.13 -7.26,36.97 -0.06,57.02 -3.4,76.72 -16.66,98.46 40.55,77.14 -101.7,92.9 -47.07,-86.77 -22.5,-116.05 -31.5,-232.05l-105.58 -0.05zm1445.8 55.59l35.11 57c69.03,150.66 -36.95,128.31 145.58,107.92l20.93 -248.76c233.68,-71.55 180.85,115.64 288.18,256.27l128.47 -11.25 -7.83 -346.8 -459.43 29.21c-10.46,11.95 -29.32,62.84 -42.55,82.6 -78.92,117.93 8.52,49.4 -108.46,73.81zm-909.84 -116.04c-96.6,4.46 -191.01,6.91 -287.29,10.05 -15.41,0.5 -133.21,5.74 -140.2,6.91 -119.87,20.01 -45.48,-14.01 -108.47,43.49l105.58 0.05c9,116 -15.57,145.28 31.5,232.05 142.25,-15.76 85.04,5.56 101.7,-92.9 3.34,-19.7 -3.86,-39.75 3.4,-76.72 19.61,-99.91 -34.28,-21.44 35.41,-76.13 66.95,54.67 27.96,67.95 41.75,227.01l381.41 19.01c88.3,-19.32 57.53,10.42 97.67,-63.61 -14.2,-28.85 2.93,-71.01 -158.86,-69.78 -80.22,0.6 -69.5,22.85 -173.11,-14.53 0.54,-69.63 9.51,-82.9 69.51,-144.9z"/>
  <path class="fil1" d="M3259.34 4350.21c88.18,-66.77 167.35,-187.78 220.05,-316.48 57.58,-140.61 54.9,-372.58 -131.48,-361.76 -290.63,16.88 -344.54,510.22 -88.57,678.24z"/>
  <path class="fil0" d="M1592.57 2033.37l-13.44 -425.91c-137.65,12.45 -194.2,58.4 -204.81,213.34 -13.14,191.94 44.93,204.57 218.25,212.57z"/>
  <path class="fil0" d="M4994.49 2169.2l141.3 10.09c70.49,-215.22 71.41,-445.06 -159.52,-471.54l18.22 461.45z"/>
  <path class="fil1" d="M3091.8 3612.05c215.35,50.96 334.87,-54.9 381.19,-180.26 -129.25,-28.73 -264.59,-9.83 -395.74,6.99l14.55 173.27z"/>
  <rect class="fil2" x="249.8" y="249.82" width="5850.37" height="5850.37"/>
  <g>
   <path class="fil3 str0" d="M5511.57 2613.25c0,212.53 -32.55,401.97 -97.72,568.18 -65.1,166.29 -156.82,306.02 -275.09,419.14 -118.27,113.11 -259.7,198.83 -424.22,257.08 -164.59,58.32 -347.96,87.41 -550.25,87.41 -202.22,0 -385.66,-30.85 -550.18,-92.56 -164.59,-61.72 -305.95,-149.98 -424.22,-264.79 -118.27,-114.88 -209.99,-254.54 -275.16,-419.13 -65.1,-164.52 -97.65,-349.65 -97.65,-555.33 0,-202.23 32.55,-385.67 97.65,-550.19 65.17,-164.59 156.89,-304.25 275.16,-419.13 118.27,-114.81 259.63,-203.14 424.22,-264.78 164.52,-61.71 347.96,-92.57 550.18,-92.57 202.29,0 385.66,31.7 550.25,95.11 164.52,63.41 305.95,152.59 424.22,267.39 118.27,114.81 209.99,254.55 275.09,419.07 65.17,164.59 97.72,346.26 97.72,545.1zm-1799.74 0c0,209.14 40.25,369.35 120.81,480.77 80.57,111.42 192.83,167.13 336.8,167.13 143.98,0 254.55,-56.56 331.65,-169.67 77.18,-113.12 115.73,-272.55 115.73,-478.23 0,-205.69 -39.4,-364.27 -118.27,-475.62 -78.87,-111.42 -190.29,-167.14 -334.26,-167.14 -143.97,0 -255.39,55.72 -334.19,167.14 -78.87,111.35 -118.27,269.93 -118.27,475.62z"/>
   <path id="1" class="fil4" d="M5511.57 2613.25c0,212.53 -32.55,401.97 -97.72,568.18 -65.1,166.29 -156.82,306.02 -275.09,419.14 -118.27,113.11 -259.7,198.83 -424.22,257.08 -164.59,58.32 -347.96,87.41 -550.25,87.41 -202.22,0 -385.66,-30.85 -550.18,-92.56 -164.59,-61.72 -305.95,-149.98 -424.22,-264.79 -118.27,-114.88 -209.99,-254.54 -275.16,-419.13 -65.1,-164.52 -97.65,-349.65 -97.65,-555.33 0,-202.23 32.55,-385.67 97.65,-550.19 65.17,-164.59 156.89,-304.25 275.16,-419.13 118.27,-114.81 259.63,-203.14 424.22,-264.78 164.52,-61.71 347.96,-92.57 550.18,-92.57 202.29,0 385.66,31.7 550.25,95.11 164.52,63.41 305.95,152.59 424.22,267.39 118.27,114.81 209.99,254.55 275.09,419.07 65.17,164.59 97.72,346.26 97.72,545.1zm-1799.74 0c0,209.14 40.25,369.35 120.81,480.77 80.57,111.42 192.83,167.13 336.8,167.13 143.98,0 254.55,-56.56 331.65,-169.67 77.18,-113.12 115.73,-272.55 115.73,-478.23 0,-205.69 -39.4,-364.27 -118.27,-475.62 -78.87,-111.42 -190.29,-167.14 -334.26,-167.14 -143.97,0 -255.39,55.72 -334.19,167.14 -78.87,111.35 -118.27,269.93 -118.27,475.62z"/>
  </g>
  <g>
   <path class="fil3 str1" d="M2379.16 3945.06c-202.29,0 -389.97,-28.24 -563.1,-84.8 -173.13,-56.62 -323.95,-141.43 -452.53,-254.54 -128.51,-113.19 -229.69,-255.39 -303.41,-426.83 -73.64,-171.44 -110.5,-371.97 -110.5,-601.66 0,-226.23 36.86,-420.75 110.5,-583.65 73.72,-162.82 170.59,-296.48 290.56,-401.05 119.96,-104.57 257.08,-181.68 411.36,-231.39 154.28,-49.71 311.95,-74.56 473.08,-74.56 181.75,0 347.11,27.4 496.24,82.26 149.12,54.86 277.7,130.27 385.66,226.23 21.54,19.13 42.09,39.19 61.79,59.8 -112.98,112.77 -200.96,248.76 -264.08,408.19 -65.1,164.52 -97.65,347.96 -97.65,550.19 0,64.81 3.25,127.58 9.67,188.38l-1008.15 151.03c37.71,113.12 114.88,197.92 231.46,254.54 116.5,56.56 250.23,84.81 401.05,84.81 140.59,0 273.4,-18.01 398.52,-53.95 28.95,-8.33 56.7,-17.02 83.25,-25.98 63.68,145.8 149.33,270.99 257.01,375.63 30.29,29.38 62.07,57.06 95.39,82.97 -35.58,49.71 -85.72,91.44 -150.25,125.26 -109.73,58.32 -233.08,97.72 -370.2,118.27 -137.12,20.62 -265.7,30.85 -385.67,30.85zm-144.04 -2020.88c-82.26,0 -153.36,13.69 -213.38,41.16 -60.01,27.4 -108.81,62.56 -146.58,105.42 -37.71,42.86 -65.95,90.8 -84.8,143.97 -18.85,53.1 -30.01,107.11 -33.47,161.98l879.36 -143.97c-10.31,-68.57 -48.01,-137.13 -113.12,-205.69 -65.17,-68.56 -161.12,-102.87 -288.01,-102.87z"/>
   <path id="1" class="fil4" d="M2379.16 3945.06c-202.29,0 -389.97,-28.24 -563.1,-84.8 -173.13,-56.62 -323.95,-141.43 -452.53,-254.54 -128.51,-113.19 -229.69,-255.39 -303.41,-426.83 -73.64,-171.44 -110.5,-371.97 -110.5,-601.66 0,-226.23 36.86,-420.75 110.5,-583.65 73.72,-162.82 170.59,-296.48 290.56,-401.05 119.96,-104.57 257.08,-181.68 411.36,-231.39 154.28,-49.71 311.95,-74.56 473.08,-74.56 181.75,0 347.11,27.4 496.24,82.26 149.12,54.86 277.7,130.27 385.66,226.23 21.54,19.13 42.09,39.19 61.79,59.8 -112.98,112.77 -200.96,248.76 -264.08,408.19 -65.1,164.52 -97.65,347.96 -97.65,550.19 0,64.81 3.25,127.58 9.67,188.38l-1008.15 151.03c37.71,113.12 114.88,197.92 231.46,254.54 116.5,56.56 250.23,84.81 401.05,84.81 140.59,0 273.4,-18.01 398.52,-53.95 28.95,-8.33 56.7,-17.02 83.25,-25.98 63.68,145.8 149.33,270.99 257.01,375.63 30.29,29.38 62.07,57.06 95.39,82.97 -35.58,49.71 -85.72,91.44 -150.25,125.26 -109.73,58.32 -233.08,97.72 -370.2,118.27 -137.12,20.62 -265.7,30.85 -385.67,30.85zm-144.04 -2020.88c-82.26,0 -153.36,13.69 -213.38,41.16 -60.01,27.4 -108.81,62.56 -146.58,105.42 -37.71,42.86 -65.95,90.8 -84.8,143.97 -18.85,53.1 -30.01,107.11 -33.47,161.98l879.36 -143.97c-10.31,-68.57 -48.01,-137.13 -113.12,-205.69 -65.17,-68.56 -161.12,-102.87 -288.01,-102.87z"/>
  </g>
  <g>
   <path class="fil3 str2" d="M1866.45 4685.26c0,77.51 -29.07,138.19 -87.2,182.04 -58.12,43.85 -143.79,65.77 -256.98,65.77 -42.83,0 -82.61,-3.05 -119.32,-9.17 -36.71,-6.12 -68.07,-15.56 -94.08,-28.3 -26,-12.75 -46.4,-28.81 -61.18,-48.19 -14.79,-19.37 -22.18,-42.32 -22.18,-68.83 0,-24.48 5.1,-45.13 15.29,-61.96 10.2,-16.82 22.44,-30.85 36.72,-42.06 29.57,16.31 63.48,30.85 101.72,43.59 38.24,12.75 82.35,19.12 132.32,19.12 31.61,0 55.83,-4.58 72.66,-13.76 16.83,-9.18 25.24,-21.42 25.24,-36.72 0,-14.27 -6.12,-25.49 -18.36,-33.65 -12.23,-8.16 -32.63,-14.79 -61.19,-19.88l-45.89 -9.18c-88.72,-17.34 -154.75,-44.62 -198.09,-81.84 -43.34,-37.22 -65.01,-90.51 -65.01,-159.85 0,-37.74 8.16,-71.9 24.47,-102.49 16.32,-30.6 39.26,-56.09 68.84,-76.49 29.57,-20.39 65.01,-36.2 106.31,-47.42 41.3,-11.22 86.94,-16.82 136.91,-16.82 37.73,0 73.17,2.8 106.31,8.41 33.15,5.61 61.96,14.02 86.43,25.24 24.48,11.22 43.85,25.75 58.13,43.59 14.28,17.85 21.41,39.01 21.41,63.49 0,23.45 -4.33,43.59 -13,60.42 -8.67,16.83 -19.63,30.85 -32.89,42.07 -8.15,-5.1 -20.39,-10.46 -36.71,-16.07 -16.32,-5.6 -34.16,-10.7 -53.54,-15.29 -19.37,-4.59 -39.01,-8.42 -58.89,-11.47 -19.89,-3.06 -37.99,-4.59 -54.31,-4.59 -33.65,0 -59.65,3.82 -78.01,11.47 -18.36,7.65 -27.53,19.63 -27.53,35.95 0,11.21 5.1,20.39 15.29,27.53 10.2,7.14 29.58,13.77 58.13,19.89l47.42 10.7c97.9,22.44 167.5,53.29 208.8,92.55 41.31,39.26 61.96,90 61.96,152.2zm305.5 -400.77c8.16,-38.76 24.22,-70.37 48.19,-94.84 23.96,-24.48 53.79,-36.72 89.48,-36.72 33.66,0 59.66,8.16 78.02,24.48 18.35,16.31 38.75,39.26 61.19,68.83l97.9 128.5 163.67 -221.81c56.09,0 100.45,9.95 133.09,29.83 32.63,19.89 48.95,46.66 48.95,80.31 0,13.26 -1.79,25.24 -5.36,35.95 -3.57,10.71 -8.92,21.67 -16.06,32.89 -7.14,11.21 -16.32,23.96 -27.53,38.24 -11.22,14.28 -24.48,31.1 -39.78,50.48l-100.96 113.2 200.39 264.63c-5.09,38.75 -20.39,69.35 -45.89,91.78 -25.49,22.44 -56.09,33.66 -91.78,33.66 -38.75,-1.02 -69.6,-12.24 -92.54,-33.66 -22.95,-21.41 -45.13,-47.42 -66.55,-78.01l-82.6 -117.79 -156.03 224.87c-5.1,0 -10.71,0.25 -16.82,0.76 -6.12,0.51 -11.22,0.77 -15.3,0.77 -52.01,0 -91.53,-10.71 -118.55,-32.13 -27.03,-21.41 -40.54,-47.93 -40.54,-79.54 0,-24.48 5.87,-46.15 17.59,-65.01 11.73,-18.87 31.87,-44.62 60.43,-77.25l122.37 -142.26 -204.98 -240.16zm1526.2 151.44c0,-31.62 -8.92,-54.82 -26.77,-69.61 -17.85,-14.78 -42.07,-22.18 -72.66,-22.18 -20.4,0 -40.54,2.55 -60.42,7.65 -19.89,5.1 -36.97,12.75 -51.25,22.95l0 530.8c-10.2,3.06 -26.26,6.12 -48.18,9.18 -21.93,3.06 -44.62,4.59 -68.08,4.59 -22.43,0 -42.57,-1.53 -60.42,-4.59 -17.84,-3.06 -32.89,-9.18 -45.12,-18.36 -12.24,-9.18 -21.67,-21.67 -28.3,-37.48 -6.63,-15.8 -9.95,-36.45 -9.95,-61.95l0 -458.9c0,-27.54 5.87,-49.97 17.6,-67.31 11.72,-17.34 27.78,-33.14 48.18,-47.42 34.67,-24.48 78.27,-44.36 130.79,-59.66 52.52,-15.3 110.9,-22.94 175.15,-22.94 115.24,0 203.96,25.24 266.16,75.71 62.21,50.48 93.32,120.6 93.32,210.34l0 478.79c-10.2,3.06 -26.26,6.12 -48.19,9.18 -21.93,3.06 -44.62,4.59 -68.07,4.59 -22.44,0 -42.58,-1.53 -60.42,-4.59 -17.85,-3.06 -32.89,-9.18 -45.13,-18.36 -12.24,-9.18 -21.67,-21.67 -28.3,-37.48 -6.63,-15.8 -9.94,-36.45 -9.94,-61.95l0 -361zm1050.46 448.19c-14.28,12.24 -33.66,22.19 -58.13,29.83 -24.48,7.65 -53.54,11.48 -87.19,11.48 -41.81,0 -78.02,-5.87 -108.61,-17.6 -30.59,-11.72 -50.99,-28.29 -61.19,-49.71 -11.22,-24.48 -24.22,-63.23 -39.01,-116.26 -14.78,-53.03 -29.31,-111.15 -43.59,-174.38 -14.28,-63.23 -27.79,-127.48 -40.54,-192.74 -12.75,-65.27 -22.69,-122.89 -29.83,-172.86 14.28,-14.27 33.4,-26.77 57.37,-37.47 23.96,-10.71 50.22,-16.07 78.78,-16.07 35.69,0 65.01,7.91 87.95,23.71 22.95,15.81 36.97,43.09 42.07,81.84 10.2,77.51 18.87,141.5 26,191.98 7.14,50.48 13.01,91.78 17.6,123.9 4.58,32.13 8.15,56.6 10.7,73.43 2.55,16.83 4.85,30.34 6.89,40.54l6.12 0c3.05,-16.32 8.41,-40.03 16.06,-71.14 7.65,-31.1 16.57,-66.54 26.77,-106.31 10.19,-39.77 20.9,-82.86 32.12,-129.26 11.22,-46.4 22.44,-92.54 33.65,-138.43 20.4,-11.22 40.54,-19.89 60.43,-26.01 19.88,-6.12 44.61,-9.18 74.19,-9.18 35.69,0 66.28,5.61 91.78,16.83 25.49,11.22 41.81,28.55 48.95,52.01 12.23,44.87 23.96,88.47 35.18,130.79 11.22,42.32 21.42,81.58 30.59,117.78 9.18,36.21 17.34,68.33 24.48,96.37 7.14,28.05 12.24,50.23 15.3,66.55l7.64 0c11.22,-78.53 22.19,-160.11 32.89,-244.76 10.71,-84.64 20.65,-170.81 29.83,-258.51 18.36,-11.22 37.73,-19.38 58.13,-24.48 20.4,-5.1 40.79,-7.65 61.19,-7.65 35.69,0 65.26,7.65 88.72,22.95 23.45,15.3 35.18,41.81 35.18,79.54 0,16.32 -2.55,40.79 -7.65,73.43 -5.09,32.63 -11.72,69.34 -19.88,110.14 -8.16,40.79 -17.59,83.62 -28.3,128.49 -10.71,44.87 -21.42,88.21 -32.12,130.02 -10.71,41.81 -20.91,79.55 -30.6,113.2 -9.69,33.65 -18.1,59.66 -25.24,78.01 -14.28,12.24 -36.2,22.19 -65.77,29.83 -29.58,7.65 -61.19,11.48 -94.85,11.48 -85.66,0 -136.14,-21.42 -151.44,-64.25 -6.11,-18.36 -13.76,-41.56 -22.94,-69.6 -9.18,-28.05 -18.87,-58.89 -29.06,-92.55 -10.2,-33.65 -19.89,-68.58 -29.07,-104.78 -9.18,-36.2 -16.83,-71.13 -22.94,-104.79 -7.14,35.7 -15.81,72.66 -26.01,110.91 -10.2,38.24 -20.65,75.46 -31.36,111.66 -10.71,36.21 -20.65,69.35 -29.83,99.43 -9.17,30.09 -16.31,54.31 -21.41,72.66z"/>
   <path id="1" class="fil4" d="M1866.45 4685.26c0,77.51 -29.07,138.19 -87.2,182.04 -58.12,43.85 -143.79,65.77 -256.98,65.77 -42.83,0 -82.61,-3.05 -119.32,-9.17 -36.71,-6.12 -68.07,-15.56 -94.08,-28.3 -26,-12.75 -46.4,-28.81 -61.18,-48.19 -14.79,-19.37 -22.18,-42.32 -22.18,-68.83 0,-24.48 5.1,-45.13 15.29,-61.96 10.2,-16.82 22.44,-30.85 36.72,-42.06 29.57,16.31 63.48,30.85 101.72,43.59 38.24,12.75 82.35,19.12 132.32,19.12 31.61,0 55.83,-4.58 72.66,-13.76 16.83,-9.18 25.24,-21.42 25.24,-36.72 0,-14.27 -6.12,-25.49 -18.36,-33.65 -12.23,-8.16 -32.63,-14.79 -61.19,-19.88l-45.89 -9.18c-88.72,-17.34 -154.75,-44.62 -198.09,-81.84 -43.34,-37.22 -65.01,-90.51 -65.01,-159.85 0,-37.74 8.16,-71.9 24.47,-102.49 16.32,-30.6 39.26,-56.09 68.84,-76.49 29.57,-20.39 65.01,-36.2 106.31,-47.42 41.3,-11.22 86.94,-16.82 136.91,-16.82 37.73,0 73.17,2.8 106.31,8.41 33.15,5.61 61.96,14.02 86.43,25.24 24.48,11.22 43.85,25.75 58.13,43.59 14.28,17.85 21.41,39.01 21.41,63.49 0,23.45 -4.33,43.59 -13,60.42 -8.67,16.83 -19.63,30.85 -32.89,42.07 -8.15,-5.1 -20.39,-10.46 -36.71,-16.07 -16.32,-5.6 -34.16,-10.7 -53.54,-15.29 -19.37,-4.59 -39.01,-8.42 -58.89,-11.47 -19.89,-3.06 -37.99,-4.59 -54.31,-4.59 -33.65,0 -59.65,3.82 -78.01,11.47 -18.36,7.65 -27.53,19.63 -27.53,35.95 0,11.21 5.1,20.39 15.29,27.53 10.2,7.14 29.58,13.77 58.13,19.89l47.42 10.7c97.9,22.44 167.5,53.29 208.8,92.55 41.31,39.26 61.96,90 61.96,152.2zm305.5 -400.77c8.16,-38.76 24.22,-70.37 48.19,-94.84 23.96,-24.48 53.79,-36.72 89.48,-36.72 33.66,0 59.66,8.16 78.02,24.48 18.35,16.31 38.75,39.26 61.19,68.83l97.9 128.5 163.67 -221.81c56.09,0 100.45,9.95 133.09,29.83 32.63,19.89 48.95,46.66 48.95,80.31 0,13.26 -1.79,25.24 -5.36,35.95 -3.57,10.71 -8.92,21.67 -16.06,32.89 -7.14,11.21 -16.32,23.96 -27.53,38.24 -11.22,14.28 -24.48,31.1 -39.78,50.48l-100.96 113.2 200.39 264.63c-5.09,38.75 -20.39,69.35 -45.89,91.78 -25.49,22.44 -56.09,33.66 -91.78,33.66 -38.75,-1.02 -69.6,-12.24 -92.54,-33.66 -22.95,-21.41 -45.13,-47.42 -66.55,-78.01l-82.6 -117.79 -156.03 224.87c-5.1,0 -10.71,0.25 -16.82,0.76 -6.12,0.51 -11.22,0.77 -15.3,0.77 -52.01,0 -91.53,-10.71 -118.55,-32.13 -27.03,-21.41 -40.54,-47.93 -40.54,-79.54 0,-24.48 5.87,-46.15 17.59,-65.01 11.73,-18.87 31.87,-44.62 60.43,-77.25l122.37 -142.26 -204.98 -240.16zm1526.2 151.44c0,-31.62 -8.92,-54.82 -26.77,-69.61 -17.85,-14.78 -42.07,-22.18 -72.66,-22.18 -20.4,0 -40.54,2.55 -60.42,7.65 -19.89,5.1 -36.97,12.75 -51.25,22.95l0 530.8c-10.2,3.06 -26.26,6.12 -48.18,9.18 -21.93,3.06 -44.62,4.59 -68.08,4.59 -22.43,0 -42.57,-1.53 -60.42,-4.59 -17.84,-3.06 -32.89,-9.18 -45.12,-18.36 -12.24,-9.18 -21.67,-21.67 -28.3,-37.48 -6.63,-15.8 -9.95,-36.45 -9.95,-61.95l0 -458.9c0,-27.54 5.87,-49.97 17.6,-67.31 11.72,-17.34 27.78,-33.14 48.18,-47.42 34.67,-24.48 78.27,-44.36 130.79,-59.66 52.52,-15.3 110.9,-22.94 175.15,-22.94 115.24,0 203.96,25.24 266.16,75.71 62.21,50.48 93.32,120.6 93.32,210.34l0 478.79c-10.2,3.06 -26.26,6.12 -48.19,9.18 -21.93,3.06 -44.62,4.59 -68.07,4.59 -22.44,0 -42.58,-1.53 -60.42,-4.59 -17.85,-3.06 -32.89,-9.18 -45.13,-18.36 -12.24,-9.18 -21.67,-21.67 -28.3,-37.48 -6.63,-15.8 -9.94,-36.45 -9.94,-61.95l0 -361zm1050.46 448.19c-14.28,12.24 -33.66,22.19 -58.13,29.83 -24.48,7.65 -53.54,11.48 -87.19,11.48 -41.81,0 -78.02,-5.87 -108.61,-17.6 -30.59,-11.72 -50.99,-28.29 -61.19,-49.71 -11.22,-24.48 -24.22,-63.23 -39.01,-116.26 -14.78,-53.03 -29.31,-111.15 -43.59,-174.38 -14.28,-63.23 -27.79,-127.48 -40.54,-192.74 -12.75,-65.27 -22.69,-122.89 -29.83,-172.86 14.28,-14.27 33.4,-26.77 57.37,-37.47 23.96,-10.71 50.22,-16.07 78.78,-16.07 35.69,0 65.01,7.91 87.95,23.71 22.95,15.81 36.97,43.09 42.07,81.84 10.2,77.51 18.87,141.5 26,191.98 7.14,50.48 13.01,91.78 17.6,123.9 4.58,32.13 8.15,56.6 10.7,73.43 2.55,16.83 4.85,30.34 6.89,40.54l6.12 0c3.05,-16.32 8.41,-40.03 16.06,-71.14 7.65,-31.1 16.57,-66.54 26.77,-106.31 10.19,-39.77 20.9,-82.86 32.12,-129.26 11.22,-46.4 22.44,-92.54 33.65,-138.43 20.4,-11.22 40.54,-19.89 60.43,-26.01 19.88,-6.12 44.61,-9.18 74.19,-9.18 35.69,0 66.28,5.61 91.78,16.83 25.49,11.22 41.81,28.55 48.95,52.01 12.23,44.87 23.96,88.47 35.18,130.79 11.22,42.32 21.42,81.58 30.59,117.78 9.18,36.21 17.34,68.33 24.48,96.37 7.14,28.05 12.24,50.23 15.3,66.55l7.64 0c11.22,-78.53 22.19,-160.11 32.89,-244.76 10.71,-84.64 20.65,-170.81 29.83,-258.51 18.36,-11.22 37.73,-19.38 58.13,-24.48 20.4,-5.1 40.79,-7.65 61.19,-7.65 35.69,0 65.26,7.65 88.72,22.95 23.45,15.3 35.18,41.81 35.18,79.54 0,16.32 -2.55,40.79 -7.65,73.43 -5.09,32.63 -11.72,69.34 -19.88,110.14 -8.16,40.79 -17.59,83.62 -28.3,128.49 -10.71,44.87 -21.42,88.21 -32.12,130.02 -10.71,41.81 -20.91,79.55 -30.6,113.2 -9.69,33.65 -18.1,59.66 -25.24,78.01 -14.28,12.24 -36.2,22.19 -65.77,29.83 -29.58,7.65 -61.19,11.48 -94.85,11.48 -85.66,0 -136.14,-21.42 -151.44,-64.25 -6.11,-18.36 -13.76,-41.56 -22.94,-69.6 -9.18,-28.05 -18.87,-58.89 -29.06,-92.55 -10.2,-33.65 -19.89,-68.58 -29.07,-104.78 -9.18,-36.2 -16.83,-71.13 -22.94,-104.79 -7.14,35.7 -15.81,72.66 -26.01,110.91 -10.2,38.24 -20.65,75.46 -31.36,111.66 -10.71,36.21 -20.65,69.35 -29.83,99.43 -9.17,30.09 -16.31,54.31 -21.41,72.66z"/>
  </g>
  <g>
   <path class="fil3 str3" d="M2382.94 3945.84c-202.26,0 -389.94,-28.28 -563.06,-84.84 -173.11,-56.57 -323.94,-141.4 -452.5,-254.53 -128.54,-113.13 -229.67,-255.38 -303.38,-426.79 -73.7,-171.4 -110.54,-371.94 -110.54,-601.61 0,-226.26 36.84,-420.8 110.54,-583.63 73.71,-162.83 170.55,-296.52 290.53,-401.08 119.98,-104.55 257.11,-181.68 411.36,-231.39 154.27,-49.71 311.96,-74.56 473.07,-74.56 181.69,0 347.09,27.42 496.21,82.27 149.12,54.85 277.67,130.27 385.66,226.25 107.97,95.99 191.96,210.83 251.95,344.52 60,133.69 89.99,279.39 89.99,437.07 0,116.56 -32.57,205.69 -97.7,267.39 -65.13,61.7 -155.98,101.12 -272.53,118.26l-1270.08 190.26c37.71,113.12 114.84,197.97 231.39,254.53 116.55,56.57 250.25,84.85 401.07,84.85 140.56,0 273.4,-18 398.51,-53.99 125.13,-36 227.12,-77.99 305.96,-125.99 54.84,34.28 101.12,82.28 138.83,143.98 37.71,61.71 56.57,126.84 56.57,195.4 0,154.26 -71.99,269.1 -215.97,344.51 -109.7,58.28 -233.11,97.7 -370.22,118.27 -137.13,20.57 -265.68,30.85 -385.66,30.85zm-143.98 -2020.81c-82.27,0 -153.41,13.71 -213.39,41.13 -59.99,27.42 -108.84,62.56 -146.55,105.41 -37.71,42.85 -65.99,90.85 -84.85,143.98 -18.85,53.14 -29.99,107.12 -33.42,161.97l879.29 -143.97c-10.28,-68.56 -47.99,-137.13 -113.13,-205.69 -65.13,-68.56 -161.11,-102.83 -287.95,-102.83z"/>
   <path id="1" class="fil5" d="M2382.94 3945.84c-202.26,0 -389.94,-28.28 -563.06,-84.84 -173.11,-56.57 -323.94,-141.4 -452.5,-254.53 -128.54,-113.13 -229.67,-255.38 -303.38,-426.79 -73.7,-171.4 -110.54,-371.94 -110.54,-601.61 0,-226.26 36.84,-420.8 110.54,-583.63 73.71,-162.83 170.55,-296.52 290.53,-401.08 119.98,-104.55 257.11,-181.68 411.36,-231.39 154.27,-49.71 311.96,-74.56 473.07,-74.56 181.69,0 347.09,27.42 496.21,82.27 149.12,54.85 277.67,130.27 385.66,226.25 107.97,95.99 191.96,210.83 251.95,344.52 60,133.69 89.99,279.39 89.99,437.07 0,116.56 -32.57,205.69 -97.7,267.39 -65.13,61.7 -155.98,101.12 -272.53,118.26l-1270.08 190.26c37.71,113.12 114.84,197.97 231.39,254.53 116.55,56.57 250.25,84.85 401.07,84.85 140.56,0 273.4,-18 398.51,-53.99 125.13,-36 227.12,-77.99 305.96,-125.99 54.84,34.28 101.12,82.28 138.83,143.98 37.71,61.71 56.57,126.84 56.57,195.4 0,154.26 -71.99,269.1 -215.97,344.51 -109.7,58.28 -233.11,97.7 -370.22,118.27 -137.13,20.57 -265.68,30.85 -385.66,30.85zm-143.98 -2020.81c-82.27,0 -153.41,13.71 -213.39,41.13 -59.99,27.42 -108.84,62.56 -146.55,105.41 -37.71,42.85 -65.99,90.85 -84.85,143.98 -18.85,53.14 -29.99,107.12 -33.42,161.97l879.29 -143.97c-10.28,-68.56 -47.99,-137.13 -113.13,-205.69 -65.13,-68.56 -161.11,-102.83 -287.95,-102.83z"/>
  </g>
  <path class="fil4" d="M1572.12 5441.57l0 268.72 -59.88 0 0 -34.72c-10.4,12.75 -23.23,22.31 -38.49,28.68 -15.27,6.38 -32.13,9.56 -50.58,9.56 -26.17,0 -49.57,-5.7 -70.2,-17.11 -20.63,-11.4 -36.73,-27.51 -48.31,-48.31 -11.57,-20.8 -17.36,-44.95 -17.36,-72.46 0,-27.51 5.79,-51.58 17.36,-72.21 11.58,-20.63 27.68,-36.65 48.31,-48.06 20.63,-11.41 44.03,-17.11 70.2,-17.11 17.45,0 33.47,3.02 48.06,9.06 14.59,6.04 27.26,14.93 37.99,26.67l0 -32.71 62.9 0zm-141.9 218.4c23.14,0 42.27,-7.72 57.36,-23.15 15.1,-15.43 22.65,-35.73 22.65,-60.89 0,-25.16 -7.55,-45.46 -22.65,-60.89 -15.09,-15.43 -34.22,-23.15 -57.36,-23.15 -23.15,0 -42.19,7.72 -57.12,23.15 -14.93,15.43 -22.39,35.73 -22.39,60.89 0,25.16 7.46,45.46 22.39,60.89 14.93,15.43 33.97,23.15 57.12,23.15zm376.91 -221.42c33.88,0 61.06,9.9 81.52,29.69 20.47,19.79 30.7,49.15 30.7,88.06l0 153.99 -62.9 0 0 -145.93c0,-23.49 -5.54,-41.18 -16.61,-53.09 -11.07,-11.91 -26.84,-17.87 -47.3,-17.87 -23.15,0 -41.44,6.96 -54.85,20.89 -13.42,13.92 -20.13,33.96 -20.13,60.13l0 135.87 -62.91 0 0 -373.39 62.91 0 0 135.87c10.4,-11.07 23.23,-19.54 38.49,-25.41 15.27,-5.87 32.29,-8.81 51.08,-8.81zm315.52 275.26c-27.18,0 -51.67,-5.87 -73.47,-17.61 -21.81,-11.74 -38.84,-28.1 -51.08,-49.06 -12.25,-20.97 -18.37,-44.71 -18.37,-71.21 0,-26.5 6.12,-50.15 18.37,-70.95 12.24,-20.8 29.27,-37.07 51.08,-48.82 21.8,-11.74 46.29,-17.61 73.47,-17.61 27.51,0 52.16,5.87 73.97,17.61 21.81,11.75 38.83,28.02 51.08,48.82 12.24,20.8 18.36,44.45 18.36,70.95 0,26.5 -6.12,50.24 -18.36,71.21 -12.25,20.96 -29.27,37.32 -51.08,49.06 -21.81,11.74 -46.46,17.61 -73.97,17.61zm0 -53.84c23.14,0 42.27,-7.72 57.36,-23.15 15.1,-15.43 22.65,-35.73 22.65,-60.89 0,-25.16 -7.55,-45.46 -22.65,-60.89 -15.09,-15.43 -34.22,-23.15 -57.36,-23.15 -23.15,0 -42.19,7.72 -57.12,23.15 -14.93,15.43 -22.39,35.73 -22.39,60.89 0,25.16 7.46,45.46 22.39,60.89 14.93,15.43 33.97,23.15 57.12,23.15zm263.69 -179.15c18.11,-28.18 49.98,-42.27 95.61,-42.27l0 59.88c-5.37,-1 -10.23,-1.51 -14.59,-1.51 -24.49,0 -43.62,7.13 -57.37,21.39 -13.76,14.26 -20.63,34.81 -20.63,61.65l0 130.33 -62.91 0 0 -268.72 59.89 0 0 39.25zm409.11 -39.25l0 268.72 -59.88 0 0 -34.72c-10.4,12.75 -23.23,22.31 -38.49,28.68 -15.27,6.38 -32.13,9.56 -50.58,9.56 -26.17,0 -49.57,-5.7 -70.2,-17.11 -20.63,-11.4 -36.73,-27.51 -48.31,-48.31 -11.57,-20.8 -17.36,-44.95 -17.36,-72.46 0,-27.51 5.79,-51.58 17.36,-72.21 11.58,-20.63 27.68,-36.65 48.31,-48.06 20.63,-11.41 44.03,-17.11 70.2,-17.11 17.45,0 33.47,3.02 48.06,9.06 14.59,6.04 27.26,14.93 37.99,26.67l0 -32.71 62.9 0zm-141.9 218.4c23.14,0 42.27,-7.72 57.36,-23.15 15.1,-15.43 22.65,-35.73 22.65,-60.89 0,-25.16 -7.55,-45.46 -22.65,-60.89 -15.09,-15.43 -34.22,-23.15 -57.36,-23.15 -23.15,0 -42.19,7.72 -57.12,23.15 -14.93,15.43 -22.39,35.73 -22.39,60.89 0,25.16 7.46,45.46 22.39,60.89 14.93,15.43 33.97,23.15 57.12,23.15zm491.14 0.5c29.19,0 53.51,-9.73 72.97,-29.19l33.21 38.75c-11.74,14.43 -26.84,25.33 -45.29,32.71 -18.45,7.38 -39.25,11.07 -62.4,11.07 -29.52,0 -55.52,-5.87 -78,-17.61 -22.47,-11.74 -39.84,-28.1 -52.08,-49.06 -12.25,-20.97 -18.37,-44.71 -18.37,-71.21 0,-26.17 5.96,-49.73 17.87,-70.7 11.91,-20.97 28.34,-37.32 49.31,-49.07 20.97,-11.74 44.7,-17.61 71.21,-17.61 25.16,0 48.06,5.45 68.69,16.36 20.63,10.9 36.98,26.5 49.06,46.8 12.08,20.29 18.12,44.03 18.12,71.2l-205.82 40.26c6.37,15.43 16.61,27.17 30.7,35.22 14.09,8.06 31.03,12.08 50.82,12.08zm-11.57 -171.6c-23.15,0 -41.85,7.55 -56.11,22.65 -14.26,15.09 -21.39,35.39 -21.39,60.89l0 0.5 151.97 -29.19c-4.36,-16.43 -13.16,-29.69 -26.41,-39.75 -13.26,-10.06 -29.28,-15.1 -48.06,-15.1zm279.29 224.94c-21.81,0 -43.11,-2.85 -63.91,-8.55 -20.8,-5.71 -37.41,-12.92 -49.82,-21.64l24.15 -47.81c12.08,8.05 26.59,14.51 43.53,19.38 16.94,4.86 33.63,7.29 50.07,7.29 37.57,0 56.36,-9.89 56.36,-29.69 0,-9.39 -4.78,-15.93 -14.34,-19.62 -9.56,-3.69 -24.91,-7.21 -46.04,-10.57 -22.15,-3.35 -40.18,-7.21 -54.1,-11.57 -13.92,-4.36 -26,-12 -36.23,-22.9 -10.23,-10.9 -15.35,-26.08 -15.35,-45.54 0,-25.5 10.65,-45.88 31.95,-61.14 21.31,-15.27 50.07,-22.9 86.31,-22.9 18.45,0 36.9,2.1 55.35,6.29 18.45,4.19 33.55,9.81 45.29,16.86l-24.15 47.81c-22.82,-13.42 -48.48,-20.13 -77,-20.13 -18.45,0 -32.46,2.76 -42.02,8.3 -9.56,5.53 -14.34,12.83 -14.34,21.89 0,10.06 5.12,17.19 15.35,21.39 10.23,4.19 26.08,8.13 47.55,11.82 21.48,3.36 39.09,7.21 52.84,11.58 13.76,4.36 25.58,11.74 35.48,22.14 9.9,10.4 14.84,25.16 14.84,44.28 0,25.16 -10.9,45.29 -32.7,60.39 -21.81,15.09 -51.5,22.64 -89.07,22.64zm577.69 -272.24l0 268.72 -59.88 0 0 -34.72c-10.4,12.75 -23.23,22.31 -38.49,28.68 -15.27,6.38 -32.13,9.56 -50.58,9.56 -26.17,0 -49.57,-5.7 -70.2,-17.11 -20.63,-11.4 -36.73,-27.51 -48.31,-48.31 -11.57,-20.8 -17.36,-44.95 -17.36,-72.46 0,-27.51 5.79,-51.58 17.36,-72.21 11.58,-20.63 27.68,-36.65 48.31,-48.06 20.63,-11.41 44.03,-17.11 70.2,-17.11 17.45,0 33.47,3.02 48.06,9.06 14.59,6.04 27.26,14.93 37.99,26.67l0 -32.71 62.9 0zm-141.9 218.4c23.14,0 42.27,-7.72 57.36,-23.15 15.1,-15.43 22.65,-35.73 22.65,-60.89 0,-25.16 -7.55,-45.46 -22.65,-60.89 -15.09,-15.43 -34.22,-23.15 -57.36,-23.15 -23.15,0 -42.19,7.72 -57.12,23.15 -14.93,15.43 -22.39,35.73 -22.39,60.89 0,25.16 7.46,45.46 22.39,60.89 14.93,15.43 33.97,23.15 57.12,23.15zm376.91 -221.42c33.88,0 61.06,9.9 81.52,29.69 20.47,19.79 30.7,49.15 30.7,88.06l0 153.99 -62.9 0 0 -145.93c0,-23.49 -5.54,-41.18 -16.61,-53.09 -11.07,-11.91 -26.84,-17.87 -47.3,-17.87 -23.15,0 -41.44,6.96 -54.85,20.89 -13.42,13.92 -20.13,33.96 -20.13,60.13l0 135.87 -62.91 0 0 -373.39 62.91 0 0 135.87c10.4,-11.07 23.23,-19.54 38.49,-25.41 15.27,-5.87 32.29,-8.81 51.08,-8.81zm315.52 275.26c-27.18,0 -51.67,-5.87 -73.47,-17.61 -21.81,-11.74 -38.84,-28.1 -51.08,-49.06 -12.25,-20.97 -18.37,-44.71 -18.37,-71.21 0,-26.5 6.12,-50.15 18.37,-70.95 12.24,-20.8 29.27,-37.07 51.08,-48.82 21.8,-11.74 46.29,-17.61 73.47,-17.61 27.51,0 52.16,5.87 73.97,17.61 21.81,11.75 38.83,28.02 51.08,48.82 12.24,20.8 18.36,44.45 18.36,70.95 0,26.5 -6.12,50.24 -18.36,71.21 -12.25,20.96 -29.27,37.32 -51.08,49.06 -21.81,11.74 -46.46,17.61 -73.97,17.61zm0 -53.84c23.14,0 42.27,-7.72 57.36,-23.15 15.1,-15.43 22.65,-35.73 22.65,-60.89 0,-25.16 -7.55,-45.46 -22.65,-60.89 -15.09,-15.43 -34.22,-23.15 -57.36,-23.15 -23.15,0 -42.19,7.72 -57.12,23.15 -14.93,15.43 -22.39,35.73 -22.39,60.89 0,25.16 7.46,45.46 22.39,60.89 14.93,15.43 33.97,23.15 57.12,23.15zm263.69 -179.15c18.11,-28.18 49.98,-42.27 95.61,-42.27l0 59.88c-5.37,-1 -10.23,-1.51 -14.59,-1.51 -24.49,0 -43.62,7.13 -57.37,21.39 -13.76,14.26 -20.63,34.81 -20.63,61.65l0 130.33 -62.91 0 0 -268.72 59.89 0 0 39.25zm409.11 -39.25l0 268.72 -59.88 0 0 -34.72c-10.4,12.75 -23.23,22.31 -38.49,28.68 -15.27,6.38 -32.13,9.56 -50.58,9.56 -26.17,0 -49.57,-5.7 -70.2,-17.11 -20.63,-11.4 -36.73,-27.51 -48.31,-48.31 -11.57,-20.8 -17.36,-44.95 -17.36,-72.46 0,-27.51 5.79,-51.58 17.36,-72.21 11.58,-20.63 27.68,-36.65 48.31,-48.06 20.63,-11.41 44.03,-17.11 70.2,-17.11 17.45,0 33.47,3.02 48.06,9.06 14.59,6.04 27.26,14.93 37.99,26.67l0 -32.71 62.9 0zm-141.9 218.4c23.14,0 42.27,-7.72 57.36,-23.15 15.1,-15.43 22.65,-35.73 22.65,-60.89 0,-25.16 -7.55,-45.46 -22.65,-60.89 -15.09,-15.43 -34.22,-23.15 -57.36,-23.15 -23.15,0 -42.19,7.72 -57.12,23.15 -14.93,15.43 -22.39,35.73 -22.39,60.89 0,25.16 7.46,45.46 22.39,60.89 14.93,15.43 33.97,23.15 57.12,23.15z"/>
 </g>
</svg>
