<?xml version="1.0" encoding="UTF-8"?>
<!DOCTYPE svg PUBLIC "-//W3C//DTD SVG 1.1//EN" "http://www.w3.org/Graphics/SVG/1.1/DTD/svg11.dtd">
<!-- Creator: CorelDRAW 2017 -->
<svg xmlns="http://www.w3.org/2000/svg" xml:space="preserve" width="63.5mm" height="63.5mm" version="1.1" style="shape-rendering:geometricPrecision; text-rendering:geometricPrecision; image-rendering:optimizeQuality; fill-rule:evenodd; clip-rule:evenodd"
viewBox="0 0 6350 6350"
 xmlns:xlink="http://www.w3.org/1999/xlink">
 <defs>
  <style type="text/css">
   <![CDATA[
    .fil0 {fill:none}
    .fil1 {fill:#060606}
   ]]>
  </style>
 </defs>
 <g id="Capa_x0020_1">
  <metadata id="CorelCorpID_0Corel-Layer"/>
  <rect class="fil0" width="6350" height="6350"/>
  <path class="fil1" d="M1497.57 3092.22c81.65,-388.34 641.78,-950.88 839.15,-1196.66 145.31,-180.95 304.5,-357.94 362.33,-650.71 50.83,-257.33 -27.68,-751.33 -296.25,-673.32 -42.82,174.78 -0.52,237.64 -99.88,413.3 -140.86,249.03 -284.77,364.31 -474.57,555.38 -232.36,233.93 -587.63,561.21 -759.01,823.34 -125.37,191.77 -317.83,615.83 -362.65,841.61 -21.74,261.1 -50.48,421.16 5.1,691 165.17,801.91 828.43,1396.63 1679.6,1407.52 200.82,2.57 211.19,135.82 495.72,287.81 651.15,347.84 1484.52,211.59 2050.09,-256 801.85,-662.92 852.91,-1648.18 593.76,-2617.04 -54.39,-203.35 -117.38,-393.22 -192.55,-588.96 -36.52,-95.12 -68.27,-175.08 -114.19,-266.32 -49.33,-98.01 -75.21,-201.11 -177.06,-212.27 -177.99,311.51 507.52,1670.11 -366.07,2817.68 -409.58,538.03 -1235.1,717 -1765.99,389.82 -193.6,-119.31 -333.67,-282.47 -432.82,-539.94 -78.56,-204.02 -158.13,-595.38 -118.85,-824.09 2.77,-97.35 2.11,-142.26 22.47,-233.07 17.87,-79.72 50.14,-163.21 -39.94,-182.1 -109.38,150.32 -176.23,429.45 -204.18,682.16 -39,352.62 -13.38,491.83 67.07,804.97 -380.28,-81.14 -607.48,-352.43 -738.13,-666.99 -118.59,-285.54 -63.34,-529.99 26.85,-807.12z"/>
 </g>
</svg>
