<?xml version="1.0" encoding="UTF-8"?>
<!DOCTYPE svg PUBLIC "-//W3C//DTD SVG 1.1//EN" "http://www.w3.org/Graphics/SVG/1.1/DTD/svg11.dtd">
<!-- Creator: CorelDRAW 2017 -->
<svg xmlns="http://www.w3.org/2000/svg" xml:space="preserve" width="63.5mm" height="63.5mm" version="1.1" style="shape-rendering:geometricPrecision; text-rendering:geometricPrecision; image-rendering:optimizeQuality; fill-rule:evenodd; clip-rule:evenodd"
viewBox="0 0 6350 6350"
 xmlns:xlink="http://www.w3.org/1999/xlink">
 <defs>
  <style type="text/css">
   <![CDATA[
    .fil0 {fill:none}
    .fil2 {fill:#111111}
    .fil1 {fill:#FBFAFB}
   ]]>
  </style>
 </defs>
 <g id="Capa_x0020_1">
  <metadata id="CorelCorpID_0Corel-Layer"/>
  <rect class="fil0" width="6350" height="6350"/>
  <g id="_3131254842000">
   <path class="fil1" d="M3181.58 4038.21c-278.98,180.07 -71.4,206.55 153.46,173.98 -56.63,-114.15 -70.47,-117.26 -153.46,-173.98z"/>
   <path class="fil2" d="M3181.58 4038.21c82.99,56.72 96.83,59.83 153.46,173.98 -224.86,32.57 -432.44,6.09 -153.46,-173.98zm-2099.93 2049.72l-79.33 -1009.36c-33.69,-339.74 -91.12,-694.74 -123.72,-1049.93 123.21,90.2 198.94,188.29 379.28,296.19 848.69,507.8 1502.06,-0.09 1641.48,-16.63 54.92,54.01 24.92,30.04 94.43,68.63 -63.17,473.4 -410.49,1503.17 -235.54,1635.96 132.48,-47.54 74.92,42.76 155.3,-353.92 46.53,-229.62 214.48,-1141.8 268.03,-1230.62 67.5,111.77 143.22,622.7 176.94,790.56l120.71 618.06c36.02,163.77 11.89,135.32 125.68,175.32 164.5,-123.94 -26.17,-597.65 -65.02,-790.5 -54.89,-272.48 -131.36,-572.3 -170.07,-846.64 83.03,-41.82 38.9,-13.23 93.98,-66.56 142.78,13.27 302.54,150.69 476,196.2 198.37,52.04 425.13,50.74 622.37,17.8 522.97,-87.36 639.77,-287.79 922.24,-495.18l-190.89 1615.75c-18.12,151.69 -118.53,503.28 60.81,457.91 118.64,-30.02 290.93,-1922.22 313.48,-2132.97 196.84,-1840.06 -186.05,-1261.89 -651.43,-2835.52l-177.68 -738.39c-38.08,-149.95 -12.4,-162.78 -157.36,-127.56l-11.03 216.61c58.21,348.55 281.13,1069.1 410.03,1358.75 202.3,454.6 545.54,872.81 482.83,1504.49 -83.99,846.03 -1148.44,1256.85 -1817.92,888.51 -267.53,-147.2 -415.12,-403.27 -563.67,-463.27 -145.71,0.46 -471.77,771.4 -1382.82,571.44 -510.67,-112.08 -947.48,-459.17 -998.29,-997.15 -59.52,-630.27 275.83,-1054.98 482,-1503.82 111.59,-242.93 508.82,-1359.78 399.35,-1597.06 -210.14,28.93 -138.19,145.5 -277.12,666 -60.68,227.31 -132.84,477.63 -217.65,697.4 -175.42,454.56 -449.85,748.96 -542.82,1291.62 -82.65,482.42 201.93,2224.48 270,2931.7 18.95,196.86 1.29,298.7 167.42,256.18z"/>
  </g>
 </g>
</svg>
