<?xml version="1.0" encoding="UTF-8"?>
<!DOCTYPE svg PUBLIC "-//W3C//DTD SVG 1.1//EN" "http://www.w3.org/Graphics/SVG/1.1/DTD/svg11.dtd">
<!-- Creator: CorelDRAW 2017 -->
<svg xmlns="http://www.w3.org/2000/svg" xml:space="preserve" width="63.5mm" height="63.5mm" version="1.1" style="shape-rendering:geometricPrecision; text-rendering:geometricPrecision; image-rendering:optimizeQuality; fill-rule:evenodd; clip-rule:evenodd"
viewBox="0 0 6350 6350"
 xmlns:xlink="http://www.w3.org/1999/xlink">
 <defs>
  <style type="text/css">
   <![CDATA[
    .str0 {stroke:black;stroke-width:50;stroke-miterlimit:22.9256}
    .fil0 {fill:none}
    .fil3 {fill:black}
    .fil1 {fill:#050505}
    .fil2 {fill:#060606}
   ]]>
  </style>
 </defs>
 <g id="Capa_x0020_1">
  <metadata id="CorelCorpID_0Corel-Layer"/>
  <rect class="fil0" width="6350" height="6350"/>
  <path class="fil1" d="M194.41 4447.98c81.86,89.91 133.86,284.51 169.65,400.77 36.66,119.1 108.07,332.24 120.32,453.04 111.86,-30.37 67.83,-9.35 119.01,-81.68 -96.2,-453.4 -353.54,-911.07 -407.08,-1355.08 -77.54,-643.04 246.59,-1114.36 655.27,-1549.88l582.32 -747.04c597.26,-890.28 497.05,-1303.52 463.68,-1253.65 -6.01,8.98 -20.27,-10.67 -27.83,-11.74 -121.38,-17.37 109.22,-1.36 -75.71,-1.98 26.94,379.74 -237.62,852.79 -404.61,1099.44 -134.27,198.29 -661.34,900.67 -825.72,1060.89 -199.6,194.52 -341.28,417.54 -433,712 -62.71,201.37 -86.01,425.57 -68.89,651.61 16.83,222.45 132.3,463.06 132.59,623.3z"/>
  <path class="fil1" d="M1352.01 2547.58c-68.44,229.1 -114.61,165.96 -236.75,646.47 -76.35,300.34 -3.45,550.26 43.9,823.91 56.1,102.48 102.68,291.16 169.09,421.48 87.89,172.46 155.01,262.65 263.18,379.3 -61.71,94.37 -191.82,174.84 -348.4,175.39 -62.9,50.36 -53.22,16.84 -119.39,64.32 -139.97,100.45 -56.11,-0.22 -75.07,110.14l395.89 -55.18c64.73,-76.28 68.56,-71.81 171.7,-109.85 27.59,-42.42 12.41,-26.13 72.24,-58.91 91.31,40.46 110.12,87.32 217.3,154.47 143.5,89.9 340.89,168.46 513.7,199.77 149.49,27.08 180.53,41.45 216.48,-70.95 -81.8,-69.13 -378.12,-100.5 -510.66,-162.48 -413.22,-193.24 -844.42,-747.52 -826.44,-1148.36 -130.99,-148.03 -83.14,-587.64 -37.31,-791.16 32.32,-143.49 37.22,-160.9 97.2,-223.94 1.3,-428.15 700.52,-676.31 684.58,-842.71 -7.64,-3.03 -20.31,-13.51 -24.07,-5.33l-46.61 -4.26c-90.85,12.35 -172.5,126.02 -315.09,172.62 -75.7,-179.88 12.5,-222.71 -168.97,-254.28 -17.08,138.01 140.16,422 -136.5,579.54z"/>
  <path class="fil2" d="M3977.56 2890.12l102.96 125.14c83.55,73.31 160.12,174.39 158.49,304.09 98.23,72.16 156.62,211.45 193.23,327.61 235.58,268.79 512.18,1315.86 564.56,1790.3 18.64,168.97 -6.72,170.67 137.98,196.2 76.56,-457.24 -358.56,-1606.57 -540.46,-1985.35 -566.56,-1179.83 -515.36,-377 -297.03,-1316.59 41.39,-178.08 51.3,-357.86 91.53,-533.08 -149.31,-46.61 -137.04,-12.25 -157.9,154.24 -15.88,126.63 -31.56,219.71 -59.77,346.44 -52.75,236.95 -126.09,387.49 -193.59,591z"/>
  <path class="fil3 str0" d="M5374.08 2243.98c-224.6,-39.46 -971.24,396.11 -1220.63,564.59 -27.61,18.65 -52.21,31.38 -78.94,51.02 -43.29,31.81 -39.75,22.86 -24.71,81.48l588.8 -357.96c103.69,-57.52 476.81,-226.89 594.63,-256.22l167.54 -36.12c17.79,58.36 25.14,74.57 75.02,73.95 16.06,-91.4 -133.17,-179.77 56.77,-233.04 85.97,-24.11 204.19,-13.19 275.94,-0.74 275.11,47.74 222.47,118.96 236.53,169.1 19.47,69.4 93.29,85.12 -79.89,244.27 -85.44,78.53 -314.49,250.3 -368.46,57.89 -19.17,-68.37 4.6,-74.3 -13.65,-145.43l-50.32 14.11c2.7,60.58 -20.77,140.51 27.76,195.76 -200.22,61 -764.11,472.08 -911,632.6 -255.88,279.6 -70.36,469.43 9.93,669.27l37.13 92.39c24.38,-41.43 40.87,-71.31 25.06,-127.69 -114.04,-406.58 -319.56,-487.06 462.81,-979.82 91.12,-57.39 168.39,-106.24 262.39,-159.88 253.74,-144.79 103.02,-34.38 282.99,-49.75 147.83,-12.63 445.31,-256.43 408.3,-388.4 -11.97,-42.67 -19.91,-42.19 -27.07,-63.25 -20.12,-59.2 5.52,-13.57 -11.74,-75.12 -29.21,-104.13 -269.39,-149.42 -367.63,-156.71 -96.75,-7.18 -259.48,-8.43 -332.61,81.14 -31.78,38.92 -16.38,53.77 -24.95,102.56z"/>
 </g>
</svg>
