<?xml version="1.0" encoding="UTF-8"?>
<!DOCTYPE svg PUBLIC "-//W3C//DTD SVG 1.1//EN" "http://www.w3.org/Graphics/SVG/1.1/DTD/svg11.dtd">
<!-- Creator: CorelDRAW 2017 -->
<svg xmlns="http://www.w3.org/2000/svg" xml:space="preserve" width="63.5mm" height="63.5mm" version="1.1" style="shape-rendering:geometricPrecision; text-rendering:geometricPrecision; image-rendering:optimizeQuality; fill-rule:evenodd; clip-rule:evenodd"
viewBox="0 0 6350 6350"
 xmlns:xlink="http://www.w3.org/1999/xlink">
 <defs>
  <style type="text/css">
   <![CDATA[
    .fil1 {fill:none}
    .fil0 {fill:black}
   ]]>
  </style>
 </defs>
 <g id="Capa_x0020_1">
  <metadata id="CorelCorpID_0Corel-Layer"/>
  <g id="_3131112440960">
   <path class="fil0" d="M615.19 4050.5c-7.35,-6.6 -9.16,-8.29 -19.39,-15.5 -180.32,-126.97 -284.97,-167.45 -404.37,-396.02 -330.2,-632.15 162.08,-1351.74 914.77,-1372.59 483.73,-13.39 731.7,412.09 832.33,829.68 62.64,259.97 33.43,491.23 -89.08,678.17 -88.45,134.99 -183.3,172.12 -285.25,240.15 -27.42,18.3 -26.84,27.81 -53.71,50.93 -33.22,28.57 -76.72,52.81 -120.47,77.66 191.75,19.07 245.4,19.43 376.04,-72.46 77.82,-54.75 170.52,-136.1 219.38,-224.76 120.37,-218.42 150.63,-463.18 83.73,-743.38 -77.52,-324.7 -249.51,-624.81 -532.33,-800.62 -319.78,-198.77 -773.14,-85.37 -1035.43,100.22 -44.63,31.58 -84.21,67.26 -126.28,100.26 -84.32,66.16 -221.99,270.25 -266.13,395.95 -91.36,260.2 -90.56,501.78 36.07,730.84 45.14,81.64 133.64,205.99 192.13,252.08 54.61,43.04 202.76,147.56 277.99,169.39z"/>
   <path class="fil0" d="M2715.83 4050.5c-99.2,-89.04 -273.02,-122.93 -423.77,-411.52 -329.16,-630.16 159.08,-1350.92 914.69,-1372.59 483.57,-13.86 731.88,412.46 832.41,829.68 91.67,380.41 -2.31,681.59 -307.58,879.92 -24.31,15.8 -42.49,22.22 -66.74,38.4 -46.77,31.21 -14.97,38.16 -174.18,128.59 191.75,19.07 245.4,19.43 376.03,-72.46 77.82,-54.75 170.53,-136.1 219.38,-224.76 120.44,-218.55 150.64,-463.17 83.73,-743.38 -44.69,-187.21 -165.17,-466.76 -292.28,-596.38 -161.61,-164.79 -321.24,-295.67 -581.32,-308.01 -270.24,-12.82 -526.32,85.23 -694.15,203.99 -107.15,75.82 -147.92,115.06 -228.89,215.46 -232.07,287.74 -309.08,683.07 -127.45,1011.59 45.13,81.64 133.63,205.99 192.12,252.08 54.62,43.04 202.77,147.56 278,169.39z"/>
   <path class="fil0" d="M4816.46 4050.5c-99.19,-89.04 -273.02,-122.93 -423.76,-411.52 -113.15,-216.61 -143.55,-424.46 -58.95,-684.62 137.93,-424.19 532.18,-675.74 973.72,-687.97 483.73,-13.39 731.7,412.09 832.33,829.68 62.64,259.97 33.43,491.23 -89.08,678.17 -88.46,134.99 -183.3,172.12 -285.25,240.15 -46.77,31.21 -14.97,38.16 -174.18,128.59 191.75,19.07 245.4,19.43 376.04,-72.46 77.82,-54.75 170.52,-136.1 219.38,-224.76 120.44,-218.55 150.63,-463.17 83.73,-743.38 -99.84,-418.19 -401.03,-881.97 -873.61,-904.39 -270.23,-12.82 -526.31,85.23 -694.15,203.99 -169.93,120.25 -319.91,289.72 -392.41,496.21 -91.36,260.2 -90.57,501.78 36.07,730.84 45.13,81.64 133.64,205.99 192.13,252.08 54.61,43.04 202.76,147.56 277.99,169.39z"/>
   <path class="fil0" d="M3158.52 3928.02c-92.66,0 -160.38,-18.52 -217.76,-104.85 163.35,58.17 316.84,9.56 459.92,-40.61 -23.44,35.56 -45.92,49.12 -73.62,71.62 -40.69,33.06 -82.75,73.84 -168.54,73.84zm16.16 72.71c103,0 161.49,-58.99 214.74,-100.35l110.62 -99.45c89.17,-85.81 55.62,-83.51 96.25,-114.06 22.83,-17.16 35.59,-17.57 35.38,-54.26 -21.95,0.01 -154.38,57.38 -189.4,70.26 -66,24.29 -129.91,47.08 -204.11,62.69 -170.47,35.86 -298.84,-23.97 -427.59,-80.81 15.72,76.03 63.72,149.18 108.84,207.68 64.77,83.96 149.05,108.3 255.27,108.3z"/>
   <path class="fil0" d="M5033.34 3759.61c52.25,87.84 56.24,96.84 160.36,136.83 169.1,64.95 292.31,-32.07 414.84,-120.05 20.68,-14.85 132.74,-122.77 142.92,-146.77 -26.63,11.09 -233.88,152.89 -324.8,191.23 -139.19,58.71 -202.28,-8.86 -300.72,-34.01 -37.15,-9.5 -60.86,-14.43 -92.6,-27.23z"/>
   <path class="fil0" d="M682.93 3915.77c30.33,-8.17 12.15,1.4 59.01,-37.32 154.9,-127.99 145.26,-105.58 277.09,-32.98 32.3,17.79 87.87,24.54 107.12,45.19 -2.56,-86.28 -132.31,-179.47 -229.96,-173.8 -83.93,4.88 -208.21,119.26 -213.26,198.91z"/>
   <path class="fil0" d="M5354.37 2865.81c3.23,162.43 141.49,100.14 246.22,62.4 127.6,-45.98 204.93,-44.81 339.91,-12.07 -40.35,-112.25 -225.66,-83.04 -309.73,-54.48 -156.92,53.32 -213.53,129.7 -266.68,22.59l-9.72 -18.44z"/>
   <path class="fil0" d="M3877.05 3054.31c4.9,-60 -49.45,-82.41 -93.03,-107.21 -124.61,-70.91 -282.92,-182.41 -449.23,-173.39l278.33 134.15c52.29,29.22 217.59,146.26 263.93,146.45z"/>
   <path class="fil0" d="M3538.25 3408.64c32,-48.18 58.79,-89.87 66.94,-157.01 6.84,-56.32 30.17,-170.39 -27.88,-177.72 -84.89,-10.73 -106.87,222.78 -39.06,334.73z"/>
   <path class="fil0" d="M1437.62 3408.64c31.99,-48.18 58.79,-89.87 66.94,-157.01 6.83,-56.32 30.16,-170.39 -27.88,-177.72 -84.89,-10.73 -106.88,222.78 -39.06,334.73z"/>
   <path class="fil0" d="M5638.89 3408.64c31.99,-48.18 58.79,-89.87 66.94,-157.01 6.83,-56.32 30.16,-170.39 -27.88,-177.72 -84.89,-10.73 -106.88,222.78 -39.06,334.73z"/>
   <path class="fil0" d="M1143.58 3071.38l122.81 -82.24c99.01,-65.92 232.25,-130.08 341.63,-183.18 29.93,-14.54 49.92,-13.89 54.72,-49.64 -58.7,-23.09 -107.85,12.73 -154.87,38.12 -47.08,25.43 -94.19,46.14 -138.51,71.75 -73.03,42.2 -199.06,132.33 -225.78,205.19z"/>
   <path class="fil0" d="M903.94 3013.76c-27.34,-76.53 -69.23,-165.54 -107.89,-229.83 -20.97,-34.86 -41.93,-68.87 -63.92,-105.7 -19.54,-32.71 -38.96,-85.6 -78.21,-90.36 -33.41,44.95 53.73,166.97 87.98,233.98 38.41,75.16 100.83,149.34 162.04,191.91z"/>
   <path class="fil0" d="M2665.3 2951.61c53.91,16.84 161.17,-64.61 233.75,-107.35 56.8,-33.45 100.25,-79.57 142.26,-124.36 19.48,-20.77 26.44,-35.14 40.78,-50.31 -185.5,100.19 -150.3,71.02 -327.65,191.94 -18.2,12.41 -32.55,22.55 -53.11,35.72 -19.82,12.7 -34.75,18.91 -36.03,54.36z"/>
   <path class="fil0" d="M5044.29 3399.27c21.32,-58.06 47.55,-59.4 52.48,-141.9 3.11,-52 -0.67,-149.95 -54.94,-145.29 -44.99,3.86 -47.75,103.42 -53.18,149.9 -9.92,84.8 18.12,98.03 55.64,137.29z"/>
   <path class="fil0" d="M2943.66 3399.27c21.32,-58.06 47.55,-59.4 52.47,-141.9 3.11,-52 -0.66,-149.95 -54.94,-145.29 -44.98,3.86 -47.74,103.42 -53.18,149.9 -9.92,84.8 18.12,98.03 55.65,137.29z"/>
   <path class="fil0" d="M843.02 3399.27c21.32,-58.06 47.55,-59.4 52.48,-141.9 3.11,-52 -0.66,-149.95 -54.94,-145.29 -44.99,3.86 -47.74,103.42 -53.18,149.9 -9.92,84.8 18.12,98.03 55.64,137.29z"/>
   <path class="fil0" d="M5195.03 2844.85c-145.94,60.78 -232.38,-51.48 -304.93,-147.63 -59.19,-78.45 -126.92,-83.67 -12.77,85.44 120.03,177.82 280.67,118.6 317.7,62.19z"/>
  </g>
  <rect class="fil1" width="6350" height="6350"/>
 </g>
</svg>
