<?xml version="1.0" encoding="UTF-8"?>
<!DOCTYPE svg PUBLIC "-//W3C//DTD SVG 1.1//EN" "http://www.w3.org/Graphics/SVG/1.1/DTD/svg11.dtd">
<!-- Creator: CorelDRAW 2017 -->
<svg xmlns="http://www.w3.org/2000/svg" xml:space="preserve" width="63.5mm" height="63.5mm" version="1.1" style="shape-rendering:geometricPrecision; text-rendering:geometricPrecision; image-rendering:optimizeQuality; fill-rule:evenodd; clip-rule:evenodd"
viewBox="0 0 6350 6350"
 xmlns:xlink="http://www.w3.org/1999/xlink">
 <defs>
  <style type="text/css">
   <![CDATA[
    .fil0 {fill:none}
    .fil1 {fill:#040404}
   ]]>
  </style>
 </defs>
 <g id="Capa_x0020_1">
  <metadata id="CorelCorpID_0Corel-Layer"/>
  <rect class="fil0" width="6350" height="6350"/>
  <path class="fil1" d="M3315.54 4163.43c444.77,-121.88 661.94,-318.34 1180.14,-87.19 767.63,342.39 1178.74,1862.29 -650.14,1873.04 -280.83,1.65 -503.86,-119.39 -630.08,-111.73 -133.51,8.09 -305.21,135.28 -571.31,152.57 -1472.05,95.67 -1869.08,-1272.15 -856.97,-1888.77 409.06,-249.21 809.66,-124.48 1217.83,13.72 -171.84,-278.99 -263.68,-337.5 -703.64,-380.02 -48.27,-206.62 34.1,-1282.86 49.84,-1573.74 409.12,-33.37 541.97,18.31 793.71,-189.43 348.45,242.6 316.56,164.19 790.92,194.21 77.52,330.42 61.67,1144.21 112.01,1565.61 -385.44,17.04 -615.68,209.23 -732.31,431.73zm-170.62 -2595.04c-136.27,106.91 -23.72,190.04 -236.5,319.37 -146.75,89.19 -827.19,212.03 -706.31,-238.4 162.17,-604.36 121.65,-934.46 530.94,-1171.33 591.04,-342.08 311.49,303.84 378.52,467.83 276.66,30.43 197.05,-385.63 162.65,-570.06 383.97,46.29 601.1,258.38 695.33,589.64 30.34,106.66 155.22,670.52 133.97,781.61 -62.03,324.24 -543.51,195.71 -659.01,146.43 -266.73,-113.78 -155.49,-180.05 -299.59,-325.09zm-2101.25 3232.74l0 390.53c52.5,93.52 71.79,232.74 124.81,342.9 59.12,122.87 128.45,215.44 205.39,294.73 303.81,313.02 344.99,170.01 675.75,330.82l718.25 0c611.96,-294.14 1571.73,281.67 2263.76,-314.48 385.07,-331.71 432.24,-1331.06 -297.06,-1841.6 -511.41,-358.02 -578.98,166.32 -601.6,-1747.53 -5.82,-492.12 343.66,-316.14 -22.58,-1430.85 -164.85,-501.76 -469.59,-500.79 -722.09,-635.76l-176.81 0c-118.42,100.33 -468.17,-93.57 -826.51,341.19 -270.83,328.57 -169.34,541.66 -312.54,953.3 -64.02,184.05 -113.33,317.69 11.55,500.76 135.85,199.16 79.29,268.15 67.81,519.36 -18.19,398.07 -50.34,825.59 -50.51,1222.82 -292.47,163.26 -632.05,246.83 -895.09,693.25 -65.18,110.62 -99.4,273.18 -162.53,380.56z"/>
 </g>
</svg>
