<?xml version="1.0" encoding="UTF-8"?>
<!DOCTYPE svg PUBLIC "-//W3C//DTD SVG 1.1//EN" "http://www.w3.org/Graphics/SVG/1.1/DTD/svg11.dtd">
<!-- Creator: CorelDRAW 2017 -->
<svg xmlns="http://www.w3.org/2000/svg" xml:space="preserve" width="63.5mm" height="63.5mm" version="1.1" style="shape-rendering:geometricPrecision; text-rendering:geometricPrecision; image-rendering:optimizeQuality; fill-rule:evenodd; clip-rule:evenodd"
viewBox="0 0 6350 6350"
 xmlns:xlink="http://www.w3.org/1999/xlink">
 <defs>
  <style type="text/css">
   <![CDATA[
    .fil0 {fill:none}
    .fil1 {fill:#080808}
   ]]>
  </style>
 </defs>
 <g id="Capa_x0020_1">
  <metadata id="CorelCorpID_0Corel-Layer"/>
  <rect class="fil0" width="6350" height="6350"/>
  <g id="_3131247880944">
   <path class="fil1" d="M391.32 4692.91c-104.07,-25.04 -115.06,-207.11 -38.62,-253.73 132.46,-80.81 59.6,215.4 38.62,253.73zm246.11 -829.64c125.58,-48.92 210.59,151.44 71.43,244.7 -155.56,104.23 -183.77,-200.95 -71.43,-244.7zm428.33 1164.53c-240.31,111.62 -294.22,249.36 -417.86,182.86 -125.87,-67.7 -184.37,-294.1 -168.14,-485.35 20.38,-240.08 60.55,-347.41 3.02,-599.72 -20.17,-88.48 -49.8,-191.24 -14.68,-286.19 27.99,-75.69 90.82,-133.34 195.97,-125.11l22.01 83.53c-55.79,16.9 -213.1,19.07 -172.61,260.35 35.64,212.3 269.83,71.73 296.74,65.04 12.4,161.68 35.02,364.02 75.87,510.63 54.84,196.72 156.53,299.1 179.68,393.96zm248.61 -1159.56c-32.01,-27.33 -216.97,-283.25 -42.26,-260.49 156.88,20.42 162.64,211.86 42.26,260.49zm705.82 984.71c-132.88,-36.06 -162.89,-209.7 -289.79,-335.16 -57.07,-56.4 -111.13,-87.05 -168.99,-142.95 -70.21,-67.88 -67.03,-110.63 -96.63,-215.64 -27.23,-96.56 -66.78,-141.22 -95.09,-213.43 47.22,-60.09 125.73,-127.59 86.51,-259.21 -43.94,-147.38 -155.14,-99.27 -237.09,-143.81 79.24,-164.6 313.29,-113.58 446.11,-25.88 150.04,99.06 176.9,171.85 266.49,357.79 76.4,158.58 341.7,332.58 496.96,438.81 112.89,77.26 172.47,67.96 141.3,157.49 -22.83,65.64 -96.82,117.63 -156.44,157.99 -94.32,63.81 -96.32,67.64 -167.64,144.2 -43.72,46.92 -125.86,106.91 -225.7,79.8zm-246.63 -101.15c-34.44,30.96 -82.53,52.5 -119.8,79.36 -115.34,83.13 -395.91,566.07 -664.88,-169.95 -74.22,-203.12 -66.13,-427.06 -117.86,-635 -28.31,-113.85 -58.11,-180.73 -104.87,-273.46 -253.65,-502.98 142.41,-682.35 315,-496.71 170.36,183.26 -26.58,323.66 111.37,577.4 46.18,84.9 102.14,146.84 146.34,230.65 53.71,101.81 46.52,189.51 90.76,286.63 44.98,98.79 115.16,120.84 189.75,187.15 43.57,38.74 137.21,135.3 154.19,213.93zm255.47 -1898.2c-163.47,-4.53 -225.57,-118.56 -168.67,-272.47 31.2,14.76 87.1,92.21 105.56,115.06 35.85,44.4 63.05,84.34 63.11,157.41zm2337.31 -933.44c39.43,331.55 41.48,218.74 -65.18,501.79 -126,334.39 -92.31,667.01 147.24,925.07 161.07,173.49 340.96,179.11 386.16,221.72 -74.38,179.14 -391.42,-54.13 -461.94,-107.25 -270.29,-203.64 -529.24,-535.07 -408.41,-910 29.58,-91.79 71.74,-162.89 106.12,-244.5 61.96,-147.2 34.69,-143.58 36.3,-295.75l259.71 -91.08zm805.49 -477.77c192.53,-29.02 396.84,-2.11 572.16,75.96 67.31,29.96 106.72,44.18 70.31,126.6 -252.68,571.56 -294.56,824.94 -264.57,1482.17 4.18,91.71 -17.62,98.93 -77.69,140.2 -366.01,251.4 -824.35,284.23 -1044.02,-134 -260.29,-495.59 120.9,-762.82 79.52,-1069.93 -21.48,-159.52 -46.6,-232.3 56.67,-340.88 139.1,-146.25 339.44,-239.71 607.62,-280.12zm204.32 -274.99c20.57,-178.31 196.93,-346.96 243.49,-450.04l-217.72 0.12c-60.92,132.12 -102.25,200.75 -146.86,358.38 -65.64,231.97 -69.33,55.5 -450.02,276.38 -315.8,183.24 -297.14,308.92 -658.33,459.82 -481.33,201.09 -1206.81,384.42 -1725.73,510.55 -102.86,24.99 -359.35,96.04 -453.45,97.2 -135.16,-166.43 -38.13,-375.99 -303.4,-434.69 -216.47,-47.91 -400.88,71.34 -656.6,17.05 -327.59,-69.55 -577.53,-127.24 -888.2,98.76 -115.58,84.07 -123.34,65.68 -117.6,246.61 52.46,-23.48 141.71,-138.54 224.35,-192.25 373.07,-242.52 658.96,26.81 1049.19,-26.98 115.61,-15.93 267.13,-37.81 365.61,21.77 97.76,59.16 111.45,147.86 154.81,261.88 33.16,87.17 19.41,67.24 -10.94,145.15 -22.15,56.9 -25.96,126.07 -9.67,186.76 37.72,140.44 118.71,121.05 229.67,174.85 -33.87,108.12 -243.98,215.89 -420.52,-61.98 -86.43,-136.04 -45.51,-118.78 -227.45,-141.58 -113.17,-14.2 -141.24,-79.54 -226.11,-120.08 -216.72,-103.5 -386.29,45.58 -543.62,117 -201.85,91.62 -344.8,98.41 -586.06,115l0.84 129.84c252.94,-7.77 505.8,-86.32 700.4,-182.62 83.13,-41.14 209.37,-123.4 325.13,-113.47 123.79,10.59 145.92,119.77 280.77,144.73 83.75,15.48 132.44,-16.39 180.21,43.55 43.29,54.33 119.77,310.74 383.6,264.44 108.76,-19.09 201.92,-112.22 227.23,-216.27 40.29,-165.55 -57.69,-255.52 -43.98,-367.94 310.45,-84.98 669.41,-148.17 986.28,-224.81l951.78 -246.66c48.55,292.21 -308.98,429.98 -128.3,936.39 149.84,419.97 511.26,556.54 560.77,639.48 -67.7,117.56 -1438.49,737.78 -1785.55,691.83 -252.5,-33.41 -507.55,-397.97 -617.74,-620.08 -148.15,-298.67 -306.3,-538.62 -734.07,-387.89 -64.16,-39.63 -81.07,-110.53 -184.32,-162.89 -184.79,-93.74 -547.23,-61.34 -481.41,439.34 -356.7,169.64 -228.19,361.1 -210.31,605.56 -171.38,-2.45 -242.67,51.57 -300.36,182.42 -112.3,254.65 -110.61,165.3 -111.29,359.1 78.09,-43.35 124.26,-201.43 168.66,-301.53 94.1,-212.14 255.04,-175.09 262.04,-77.81 -38.78,20.34 -172.83,-3.1 -184.93,195.07 -8.32,136.53 57.81,172.93 143.09,219.73 10,218.93 85.16,242.47 -43.66,411.02 -134.8,176.4 -292.27,37.21 -345.87,16.67l0.89 121.99c335.68,121.49 359.68,-83.59 498.26,-133.08 199.12,330.36 465.35,-83.37 671.21,-66.76 82.78,6.69 105.61,55.86 227.28,19.27 115.59,-34.77 181.8,-144.4 284.21,-208.66 261.44,-164.01 161.84,13.78 386.53,10.07 199.82,-3.3 211.78,-146.92 351.41,-220.98 324.3,-171.99 232.9,-197.44 319.09,-253.18 28.41,-18.38 180.3,-48.69 226.04,-60.81 586.56,-155.46 1079.67,-413.78 1601.78,-685.54 126.46,-65.83 296.07,79.09 372.84,-158.12 466.39,-41.6 481.71,-206.8 627.82,-235.02 54.19,433.41 139.53,873.12 266.21,1266.67 69.96,217.34 306.63,832.5 478.66,1005.78 17.19,17.32 4.01,6.16 24.56,20.8 15.13,-298.28 -38.01,-217.23 -187.77,-573.74 -239.27,-569.61 -383.11,-1160.47 -440.96,-1796.33 -66.23,-727.72 86.51,-1503.16 560.81,-2039.78 91.83,-103.87 73.7,-99.52 68.57,-302.72 -38.32,17.58 -75.19,55.22 -102.28,86.91l-230.44 299.09c-63.38,-11.13 -169.94,-78.59 -278.46,-103.6 -117.66,-27.12 -221.12,-29.6 -350.11,-29.14z"/>
   <path class="fil1" d="M987.45 3529.76c-75.49,140.11 -283.38,69.37 -194.56,-131.38 72.43,-163.71 264.16,2.14 194.56,131.38zm-130.97 -253.32c-198.29,53.06 -180.69,448.35 70.74,372.53 242.79,-73.22 112.69,-421.63 -70.74,-372.53z"/>
  </g>
 </g>
</svg>
