<?xml version="1.0" encoding="UTF-8"?>
<!DOCTYPE svg PUBLIC "-//W3C//DTD SVG 1.1//EN" "http://www.w3.org/Graphics/SVG/1.1/DTD/svg11.dtd">
<!-- Creator: CorelDRAW 2017 -->
<svg xmlns="http://www.w3.org/2000/svg" xml:space="preserve" width="63.5mm" height="63.5mm" version="1.1" style="shape-rendering:geometricPrecision; text-rendering:geometricPrecision; image-rendering:optimizeQuality; fill-rule:evenodd; clip-rule:evenodd"
viewBox="0 0 6350 6350"
 xmlns:xlink="http://www.w3.org/1999/xlink">
 <defs>
  <style type="text/css">
   <![CDATA[
    .fil0 {fill:none}
    .fil7 {fill:#010101}
    .fil5 {fill:#020202}
    .fil4 {fill:#030303}
    .fil3 {fill:#050505}
    .fil2 {fill:#060606}
    .fil6 {fill:#0F0F0F}
    .fil1 {fill:#5E5E5E}
   ]]>
  </style>
 </defs>
 <g id="Capa_x0020_1">
  <metadata id="CorelCorpID_0Corel-Layer"/>
  <rect class="fil0" width="6350" height="6350"/>
  <g id="_3131247874544">
   <path class="fil1" d="M5698.83 1002.43c45.37,-77.84 50.62,-278.31 18.74,-373.41 -97,-30.08 -276.92,-17.84 -356.88,15.85l346.35 -6.26 -8.21 363.82z"/>
   <path class="fil2" d="M5360.69 644.87c79.96,-33.69 259.88,-45.93 356.88,-15.85 31.88,95.1 26.63,295.57 -18.74,373.41 7.31,542.68 -234.24,1255.68 -645.71,930.12 -320.65,-253.69 123.74,-583.77 298.53,-755.56 48.19,-47.37 206.32,-164.66 93.61,-275.2 -182.74,-179.21 -476.28,427.05 -716.94,486.85 -133.3,33.13 -240.74,-1.36 -314.9,-94.51 -192.87,-242.25 33,-438.77 213.34,-522.31 204.05,-94.51 473.1,-120.94 733.93,-126.95zm-3493.18 2081.86c37.39,110.73 -55.19,-54.26 31.56,39.91l49.44 48.1c62.99,49.87 17.4,9.3 56.85,1.65l83.21 -9.12c-2.47,5.38 -8.07,7.06 -8.7,15.47 -0.63,8.45 -6.58,12.89 -7.22,16.34 -0.63,3.36 -3.8,12.9 -4.28,16.9l4.45 51.89c123.34,-25.6 238.21,-75.94 383.81,-83.72 539.73,-28.84 166.7,334.54 1105.61,-633.28l684.76 -680.81c154.21,93.86 189.11,136.67 440.72,148.81 14.53,259.78 47.44,271.06 144.53,435.2l-1353.74 1372.02c-28.23,68.3 167.3,510.35 -111.23,915.47 -292.5,425.44 -649.76,516.84 -1127.82,436.86 -153.1,-25.62 -225.2,110.51 -307.11,193.08 -537.95,542.4 -850.51,612.14 -43.37,872.88 1477.29,477.24 3071.39,-838.84 2702.69,-2527.91 -22.93,-105.06 -21.71,-92.86 -58.21,-164.18 -420.26,-87.89 -29.15,317.54 -186.17,1040.94 -152.42,702.21 -689.4,1251.6 -1369.61,1429.63 -467.77,122.42 -830.5,47.46 -1228.69,-98.79l463.24 -476.71c550.63,14.68 768.19,55.35 1214.29,-376.89 487.09,-471.95 287.84,-1015.63 336.59,-1200.03 -3.75,-2.27 -11.66,-5.2 -13.14,-0.36l-25.95 5.73c-74.83,31.92 103.41,32.96 -110.81,53.48 -4.06,-4.74 -9.29,-19.37 -10.54,-15.47 -1.21,3.8 -8.4,-12.21 -9.87,-15.31 -43.14,-91.06 -5.05,-93.15 161.53,-247.04 52.21,-48.23 84.72,-83.75 134.96,-133.71 26.06,-25.91 36.85,-35.44 61.7,-61.15l69.82 -77.37c87.97,-96.34 183.78,-177.43 274.06,-266.97 189.01,-187.49 73.37,-129.82 350.95,-264.65 -34.42,115.65 30.38,39.7 -73.52,98.35l22.97 103.76c110.43,-65.72 357.24,-341.53 468.69,-452.6 295.79,26.7 493.86,9.25 669.37,-261.72 258.85,-399.64 292.58,-1433 182.98,-1544.73 -136.93,-139.59 -1014.02,-15.58 -1219.94,41.46 -409.75,113.51 -649.36,314.52 -584.67,810.5 -319.89,309.09 -613.79,619.73 -939.16,936.42 -318.71,310.2 -289.92,387.86 -505.39,360.6 -342.68,-43.34 -540.32,46.98 -799.64,147.07z"/>
   <path class="fil2" d="M415.5 3421.75l1.41 122.94c123.47,-105.57 48.9,-90.95 147.27,-98.11l-29.96 394.23c23.41,184.81 -8.53,76 79.02,146.49l0 -344.25c-55.13,41.49 -7.38,219.44 -36.73,399.22l-36.92 141.74c-80.72,-17.77 -77.25,82.77 -74.11,-269.91 1.17,-131.1 0.22,-262.6 0.22,-393.74 -84.45,67.98 -77.66,-56.59 -73.63,319.68 0.84,78.8 6.02,198.34 -1.9,270.44l109.8 461.92 88.8 -93.08c145.25,10.5 38.72,28.4 97.27,90.28 71.64,75.72 76.81,91.42 70.85,-16.76 -115.76,-459.88 -202.87,-716.39 -61.82,-1221.53 72.33,-259.08 193.48,-476.4 353.03,-680.07 377.66,-482.12 1053.14,-759.45 1681.79,-680.8 238.19,29.81 487.98,170.19 424.22,-157.21 -941.76,-422.51 -2534.37,273.09 -2738.61,1608.52z"/>
   <path class="fil3" d="M1298.89 3470.93c-125.25,239.69 6.83,604.5 -64.76,692.6 -118.35,145.64 -318.85,279.2 -425.04,432.92l-52.2 -43.61c5.96,108.18 0.79,92.48 -70.85,16.76 -58.55,-61.88 47.98,-79.78 -97.27,-90.28l-88.8 93.08c63.72,203.78 127.25,368.02 285.51,377.58l752.82 -736.83c-1.54,-148.31 -51.61,-253.86 -42.62,-423.37 7.85,-147.94 64.26,-263.38 67.26,-372.41 -25.77,-21.98 -77.07,26.49 -15.2,-107.31 -168.61,-29.96 -176.24,53.33 -172.24,185.46 -85.18,-24.62 -63.36,24.61 -76.61,-24.59z"/>
   <path class="fil4" d="M3763.11 3510.44c72.22,-19.9 162.74,-134.41 217.72,-188.26 77.2,-75.6 129.26,-134.8 207.47,-210.31 105.18,-101.54 349.57,-320.14 406.97,-422.14l-22.97 -103.76c103.9,-58.65 39.1,17.3 73.52,-98.35 -277.58,134.83 -161.94,77.16 -350.95,264.65 -90.28,89.54 -186.09,170.63 -274.06,266.97l-69.82 77.37c-24.85,25.71 -35.64,35.24 -61.7,61.15 -50.24,49.96 -82.75,85.48 -134.96,133.71 -166.58,153.89 -204.67,155.98 -161.53,247.04 1.47,3.1 8.66,19.11 9.87,15.31 1.25,-3.9 6.48,10.73 10.54,15.47 214.22,-20.52 35.98,-21.56 110.81,-53.48l25.95 -5.73c1.48,-4.84 9.39,-1.91 13.14,0.36z"/>
   <path class="fil5" d="M1687.51 2877.1c155.96,-39.3 31.03,-23.55 81.41,50.99 -75.25,32.78 -106.43,32.33 -164.44,105.27 -36.99,46.52 -19.5,31.21 -49,70.73l-77.62 96.48c3.05,5.62 12.04,5.89 13.61,13.51 1.35,6.52 10.55,9.68 12.23,10.95l25.54 16.18c0.57,0.6 2.76,4.26 3.38,5.02l39.71 52.7c42.32,-63.21 74.03,-158.47 186.82,-199.06 46.65,-16.78 -37.53,-35.92 39.7,-1.23 5.01,-2.02 12.28,-12.13 14.13,-7.96l259.84 -182.81 -4.45 -51.89c0.48,-4 3.65,-13.54 4.28,-16.9 0.64,-3.45 6.59,-7.89 7.22,-16.34 0.63,-8.41 6.23,-10.09 8.7,-15.47l-83.21 9.12c-39.45,7.65 6.14,48.22 -56.85,-1.65l-49.44 -48.1c-86.75,-94.17 5.83,70.82 -31.56,-39.91 -48.07,60.15 -128.68,85.88 -180,150.37z"/>
   <path class="fil6" d="M1298.89 3470.93c13.25,49.2 -8.57,-0.03 76.61,24.59 -4,-132.13 3.63,-215.42 172.24,-185.46 -61.87,133.8 -10.57,85.33 15.2,107.31 55.51,-47.76 214.6,-276.5 235.91,-318.73 -77.23,-34.69 6.95,-15.55 -39.7,1.23 -112.79,40.59 -144.5,135.85 -186.82,199.06l-39.71 -52.7c-0.62,-0.76 -2.81,-4.42 -3.38,-5.02l-25.54 -16.18c-1.68,-1.27 -10.88,-4.43 -12.23,-10.95 -1.57,-7.62 -10.56,-7.89 -13.61,-13.51l77.62 -96.48c29.5,-39.52 12.01,-24.21 49,-70.73 58.01,-72.94 89.19,-72.49 164.44,-105.27 -50.38,-74.54 74.55,-90.29 -81.41,-50.99 -46.79,20.62 -2.1,-10.57 -55.58,39.22 -4.86,4.53 -18.31,20.16 -23.26,25.18 -147.44,149.52 -256.68,303.3 -309.78,529.43z"/>
   <path class="fil7" d="M390.17 4110.48c7.92,-72.1 2.74,-191.64 1.9,-270.44 -4.03,-376.27 -10.82,-251.7 73.63,-319.68 0,131.14 0.95,262.64 -0.22,393.74 -3.14,352.68 -6.61,252.14 74.11,269.91l36.92 -141.74c29.35,-179.78 -18.4,-357.73 36.73,-399.22l0 344.25c-87.55,-70.49 -55.61,38.32 -79.02,-146.49l29.96 -394.23c-98.37,7.16 -23.8,-7.46 -147.27,98.11l-1.41 -122.94c-49.55,237.34 -48.51,441.74 -25.33,688.73z"/>
  </g>
 </g>
</svg>
